# Blender 3.5.0
# www.blender.org
mtllib testScene.mtl
o Cube
v 9.057017 0.228097 -9.057017
v 9.057017 -0.228097 -9.057017
v 9.057017 0.228097 9.057017
v 9.057017 -0.228097 9.057017
v -9.057017 0.228097 -9.057017
v -9.057017 -0.228097 -9.057017
v -9.057017 0.228097 9.057017
v -9.057017 -0.228097 9.057017
v 9.057017 0.228097 -9.057017
v 9.057017 -0.228097 -9.057017
v 9.057017 0.228097 9.057017
v 9.057017 -0.228097 9.057017
v -9.057017 0.228097 -9.057017
v -9.057017 -0.228097 -9.057017
v -9.057017 0.228097 9.057017
v -9.057017 -0.228097 9.057017
vn -0.0000 -1.0000 -0.0000
vn -0.0000 -0.0000 -1.0000
vn 1.0000 -0.0000 -0.0000
vn -0.0000 1.0000 -0.0000
vn -1.0000 -0.0000 -0.0000
vn -0.0000 -0.0000 1.0000
vt 0.625000 0.500000
vt 0.375000 0.500000
vt 0.625000 0.750000
vt 0.375000 0.750000
vt 0.875000 0.500000
vt 0.625000 0.250000
vt 0.125000 0.500000
vt 0.375000 0.250000
vt 0.875000 0.750000
vt 0.625000 1.000000
vt 0.625000 0.000000
vt 0.375000 1.000000
vt 0.375000 0.000000
vt 0.125000 0.750000
vt 0.625000 0.500000
vt 0.375000 0.500000
vt 0.625000 0.750000
vt 0.375000 0.750000
vt 0.875000 0.500000
vt 0.625000 0.250000
vt 0.125000 0.500000
vt 0.375000 0.250000
vt 0.875000 0.750000
vt 0.625000 1.000000
vt 0.625000 0.000000
vt 0.375000 1.000000
vt 0.375000 0.000000
vt 0.125000 0.750000
s 0
usemtl Material
f 1/1/1 3/3/1 7/9/1 5/5/1
f 4/4/2 8/12/2 7/10/2 3/3/2
f 8/13/3 6/8/3 5/6/3 7/11/3
f 6/7/4 8/14/4 4/4/4 2/2/4
f 2/2/5 4/4/5 3/3/5 1/1/5
f 6/8/6 2/2/6 1/1/6 5/6/6
f 9/15/4 13/19/4 15/23/4 11/17/4
f 12/18/6 11/17/6 15/24/6 16/26/6
f 16/27/5 15/25/5 13/20/5 14/22/5
f 14/21/1 10/16/1 12/18/1 16/28/1
f 10/16/3 9/15/3 11/17/3 12/18/3
f 14/22/2 13/20/2 9/15/2 10/16/2
o Cube.001
v -6.667356 0.027488 7.593744
v -6.667356 2.027488 7.593744
v -6.667356 0.027488 5.593744
v -6.667356 2.027488 5.593744
v -4.667356 0.027488 7.593744
v -4.667356 2.027488 7.593744
v -4.667356 0.027488 5.593744
v -4.667356 2.027488 5.593744
vn -1.0000 -0.0000 -0.0000
vn -0.0000 -0.0000 -1.0000
vn 1.0000 -0.0000 -0.0000
vn -0.0000 -0.0000 1.0000
vn -0.0000 -1.0000 -0.0000
vn -0.0000 1.0000 -0.0000
vt 0.375000 0.000000
vt 0.375000 1.000000
vt 0.125000 0.750000
vt 0.625000 0.000000
vt 0.625000 1.000000
vt 0.875000 0.750000
vt 0.375000 0.250000
vt 0.125000 0.500000
vt 0.625000 0.250000
vt 0.875000 0.500000
vt 0.375000 0.750000
vt 0.625000 0.750000
vt 0.375000 0.500000
vt 0.625000 0.500000
s 0
f 17/29/7 18/32/7 20/37/7 19/35/7
f 19/35/8 20/37/8 24/42/8 23/41/8
f 23/41/9 24/42/9 22/40/9 21/39/9
f 21/39/10 22/40/10 18/33/10 17/30/10
f 19/36/11 23/41/11 21/39/11 17/31/11
f 24/42/12 20/38/12 18/34/12 22/40/12
o Cube.002
v 6.395235 0.035127 -5.313802
v 6.395235 9.894230 -5.313802
v 6.395235 0.035127 -6.293916
v 6.395235 9.894230 -6.293916
v 7.375349 0.035127 -5.313802
v 7.375349 9.894230 -5.313802
v 7.375349 0.035127 -6.293916
v 7.375349 9.894230 -6.293916
vn -1.0000 -0.0000 -0.0000
vn -0.0000 -0.0000 -1.0000
vn 1.0000 -0.0000 -0.0000
vn -0.0000 -0.0000 1.0000
vn -0.0000 -1.0000 -0.0000
vn -0.0000 1.0000 -0.0000
vt 0.375000 0.000000
vt 0.375000 1.000000
vt 0.125000 0.750000
vt 0.625000 0.000000
vt 0.625000 1.000000
vt 0.875000 0.750000
vt 0.375000 0.250000
vt 0.125000 0.500000
vt 0.625000 0.250000
vt 0.875000 0.500000
vt 0.375000 0.750000
vt 0.625000 0.750000
vt 0.375000 0.500000
vt 0.625000 0.500000
s 0
f 25/43/13 26/46/13 28/51/13 27/49/13
f 27/49/14 28/51/14 32/56/14 31/55/14
f 31/55/15 32/56/15 30/54/15 29/53/15
f 29/53/16 30/54/16 26/47/16 25/44/16
f 27/50/17 31/55/17 29/53/17 25/45/17
f 32/56/18 28/52/18 26/48/18 30/54/18
o Cube.003
v -7.670358 0.461185 -3.371384
v -7.670358 0.069069 -3.371384
v -7.670358 0.461185 -7.719257
v -7.670358 0.069069 -7.719257
v -3.322484 0.461185 -3.371384
v -3.322484 0.069069 -3.371384
v -3.322484 0.461185 -7.719257
v -3.322484 0.069069 -7.719257
vn -1.0000 -0.0000 -0.0000
vn -0.0000 -0.0000 -1.0000
vn 1.0000 -0.0000 -0.0000
vn -0.0000 -0.0000 1.0000
vn -0.0000 1.0000 -0.0000
vn -0.0000 -1.0000 -0.0000
vt 0.375000 0.000000
vt 0.375000 1.000000
vt 0.125000 0.750000
vt 0.625000 0.000000
vt 0.625000 1.000000
vt 0.875000 0.750000
vt 0.375000 0.250000
vt 0.125000 0.500000
vt 0.625000 0.250000
vt 0.875000 0.500000
vt 0.375000 0.750000
vt 0.625000 0.750000
vt 0.375000 0.500000
vt 0.625000 0.500000
s 0
f 33/57/19 35/63/19 36/65/19 34/60/19
f 35/63/20 39/69/20 40/70/20 36/65/20
f 39/69/21 37/67/21 38/68/21 40/70/21
f 37/67/22 33/58/22 34/61/22 38/68/22
f 35/64/23 33/59/23 37/67/23 39/69/23
f 40/70/24 38/68/24 34/62/24 36/66/24
