{
	"asset":{
		"generator":"Khronos glTF Blender I/O v4.1.63",
		"version":"2.0"
	},
	"extensionsUsed":[
		"KHR_texture_transform",
		"KHR_materials_specular",
		"KHR_materials_ior"
	],
	"extensionsRequired":[
		"KHR_texture_transform"
	],
	"scene":0,
	"scenes":[
		{
			"name":"Scene",
			"nodes":[
				0,
				1,
				2,
				3,
				4,
				5
			]
		}
	],
	"nodes":[
		{
			"mesh":0,
			"name":"leaves",
			"rotation":[
				-0.2426716834306717,
				0.6533803343772888,
				-0.7057375907897949,
				0.12703973054885864
			],
			"scale":[
				0.6083419322967529,
				0.6083419919013977,
				0.6083419322967529
			],
			"translation":[
				-23.205997467041016,
				5.727126121520996,
				-3.6280112266540527
			]
		},
		{
			"mesh":1,
			"name":"Branch",
			"translation":[
				0.04063639044761658,
				0,
				-3.332183837890625
			]
		},
		{
			"mesh":2,
			"name":"Back",
			"rotation":[
				0.7071068286895752,
				0,
				0,
				0.7071068286895752
			],
			"scale":[
				4.818586826324463,
				4.818586826324463,
				4.818586826324463
			],
			"translation":[
				-15.311426162719727,
				10.868681907653809,
				2.186837911605835
			]
		},
		{
			"mesh":3,
			"name":"Sphere",
			"scale":[
				1.091131567955017,
				1.091131567955017,
				1.091131567955017
			],
			"translation":[
				-0.15063217282295227,
				0.18013924360275269,
				-0.6664203405380249
			]
		},
		{
			"mesh":4,
			"name":"Sphere.001",
			"scale":[
				0.648474395275116,
				0.648474395275116,
				0.648474395275116
			],
			"translation":[
				-3.92763352394104,
				1.875408411026001,
				-2.877864360809326
			]
		},
		{
			"mesh":5,
			"name":"Sphere.002",
			"scale":[
				0.648474395275116,
				0.648474395275116,
				0.648474395275116
			],
			"translation":[
				2.3895504474639893,
				-0.03603315353393555,
				-3.9268574714660645
			]
		}
	],
	"materials":[
		{
			"doubleSided":true,
			"extensions":{
				"KHR_materials_specular":{
					"specularTexture":{
						"extensions":{
							"KHR_texture_transform":{
								"offset":[
									-0.999999999999999,
									1.00000004371139
								],
								"rotation":1.5707963705062866
							}
						},
						"index":0,
						"texCoord":1
					}
				},
				"KHR_materials_ior":{
					"ior":1.4500000476837158
				}
			},
			"name":"Green grass with leafes",
			"normalTexture":{
				"extensions":{
					"KHR_texture_transform":{
						"offset":[
							-0.999999999999999,
							1.00000004371139
						],
						"rotation":1.5707963705062866
					}
				},
				"index":1,
				"texCoord":1
			},
			"pbrMetallicRoughness":{
				"baseColorTexture":{
					"extensions":{
						"KHR_texture_transform":{
							"offset":[
								-0.999999999999999,
								1.00000004371139
							],
							"rotation":1.5707963705062866
						}
					},
					"index":2,
					"texCoord":1
				},
				"metallicFactor":0,
				"metallicRoughnessTexture":{
					"extensions":{
						"KHR_texture_transform":{
							"offset":[
								-0.999999999999999,
								1.00000004371139
							],
							"rotation":1.5707963705062866
						}
					},
					"index":3,
					"texCoord":1
				}
			}
		},
		{
			"doubleSided":true,
			"extensions":{
				"KHR_materials_specular":{
					"specularFactor":0
				},
				"KHR_materials_ior":{
					"ior":1.4500000476837158
				}
			},
			"name":"Moss Bark",
			"normalTexture":{
				"index":4,
				"scale":1.5
			},
			"pbrMetallicRoughness":{
				"baseColorTexture":{
					"index":5
				},
				"metallicFactor":0,
				"metallicRoughnessTexture":{
					"index":6
				}
			}
		},
		{
			"doubleSided":true,
			"extensions":{
				"KHR_materials_specular":{
					"specularFactor":0
				},
				"KHR_materials_ior":{
					"ior":1.4500000476837158
				}
			},
			"name":"Moss Bark",
			"normalTexture":{
				"index":4,
				"scale":1.5,
				"texCoord":1
			},
			"pbrMetallicRoughness":{
				"baseColorTexture":{
					"index":5,
					"texCoord":1
				},
				"metallicFactor":0,
				"metallicRoughnessTexture":{
					"index":6,
					"texCoord":1
				}
			}
		},
		{
			"doubleSided":true,
			"extensions":{
				"KHR_materials_specular":{
					"specularFactor":0.4000000059604645
				},
				"KHR_materials_ior":{
					"ior":1.4500000476837158
				}
			},
			"name":"Stone.001",
			"normalTexture":{
				"extensions":{
					"KHR_texture_transform":{
						"offset":[
							0,
							0.4999999403953552
						],
						"scale":[
							0.5000000596046448,
							0.5000000596046448
						]
					}
				},
				"index":7,
				"texCoord":1
			},
			"pbrMetallicRoughness":{
				"baseColorTexture":{
					"extensions":{
						"KHR_texture_transform":{
							"offset":[
								0,
								0.4999999403953552
							],
							"scale":[
								0.5000000596046448,
								0.5000000596046448
							]
						}
					},
					"index":8,
					"texCoord":1
				},
				"metallicFactor":0,
				"metallicRoughnessTexture":{
					"extensions":{
						"KHR_texture_transform":{
							"offset":[
								0,
								0.4999999403953552
							],
							"scale":[
								0.5000000596046448,
								0.5000000596046448
							]
						}
					},
					"index":9,
					"texCoord":1
				}
			}
		}
	],
	"meshes":[
		{
			"name":"Circle.001",
			"primitives":[
				{
					"attributes":{
						"POSITION":0,
						"NORMAL":1,
						"TEXCOORD_0":2,
						"TEXCOORD_1":3
					},
					"indices":4,
					"material":0
				}
			]
		},
		{
			"name":"Mesh",
			"primitives":[
				{
					"attributes":{
						"POSITION":5,
						"NORMAL":6,
						"TEXCOORD_0":7
					},
					"indices":8,
					"material":1
				}
			]
		},
		{
			"name":"Plane",
			"primitives":[
				{
					"attributes":{
						"POSITION":9,
						"NORMAL":10,
						"TEXCOORD_0":11,
						"TEXCOORD_1":12
					},
					"indices":13,
					"material":2
				}
			]
		},
		{
			"name":"Sphere",
			"primitives":[
				{
					"attributes":{
						"POSITION":14,
						"NORMAL":15,
						"TEXCOORD_0":16,
						"TEXCOORD_1":17
					},
					"indices":18,
					"material":3
				}
			]
		},
		{
			"name":"Sphere.001",
			"primitives":[
				{
					"attributes":{
						"POSITION":19,
						"NORMAL":20,
						"TEXCOORD_0":21,
						"TEXCOORD_1":22
					},
					"indices":23,
					"material":3
				}
			]
		},
		{
			"name":"Sphere.002",
			"primitives":[
				{
					"attributes":{
						"POSITION":24,
						"NORMAL":25,
						"TEXCOORD_0":26,
						"TEXCOORD_1":27
					},
					"indices":23,
					"material":3
				}
			]
		}
	],
	"textures":[
		{
			"sampler":0,
			"source":0
		},
		{
			"sampler":0,
			"source":1
		},
		{
			"sampler":0,
			"source":2
		},
		{
			"sampler":0,
			"source":3
		},
		{
			"sampler":0,
			"source":4
		},
		{
			"sampler":0,
			"source":5
		},
		{
			"sampler":0,
			"source":6
		},
		{
			"sampler":0,
			"source":7
		},
		{
			"sampler":0,
			"source":8
		},
		{
			"sampler":0,
			"source":9
		}
	],
	"images":[
		{
			"mimeType":"image/jpeg",
			"name":"grass with leafes specular",
			"uri":"grass%20with%20leafes%20specular.jpg"
		},
		{
			"mimeType":"image/jpeg",
			"name":"grass with leafes bump",
			"uri":"grass%20with%20leafes%20bump.jpg"
		},
		{
			"mimeType":"image/jpeg",
			"name":"grass with leafes diffuse",
			"uri":"grass%20with%20leafes%20diffuse.jpg"
		},
		{
			"mimeType":"image/png",
			"name":"grass with leafes rough",
			"uri":"grass%20with%20leafes%20rough.png"
		},
		{
			"mimeType":"image/jpeg",
			"name":"Moss Bark_Normal",
			"uri":"Moss%20Bark_Normal.jpg"
		},
		{
			"mimeType":"image/jpeg",
			"name":"Moss Bark_BaseColor",
			"uri":"Moss%20Bark_BaseColor.jpg"
		},
		{
			"mimeType":"image/png",
			"name":"Moss Bark_Roughness",
			"uri":"Moss%20Bark_Roughness.png"
		},
		{
			"mimeType":"image/jpeg",
			"name":"stone-9_bump",
			"uri":"stone-9_bump.jpg"
		},
		{
			"mimeType":"image/jpeg",
			"name":"stone-9_diffuse",
			"uri":"stone-9_diffuse.jpg"
		},
		{
			"mimeType":"image/png",
			"name":"stone-9_smooth",
			"uri":"stone-9_smooth.png"
		}
	],
	"accessors":[
		{
			"bufferView":0,
			"componentType":5126,
			"count":1280,
			"max":[
				2.199984312057495,
				-0.004687918350100517,
				1
			],
			"min":[
				-31.969263076782227,
				-6.7540693283081055,
				-2.2968666553497314
			],
			"type":"VEC3"
		},
		{
			"bufferView":1,
			"componentType":5126,
			"count":1280,
			"type":"VEC3"
		},
		{
			"bufferView":2,
			"componentType":5126,
			"count":1280,
			"type":"VEC2"
		},
		{
			"bufferView":3,
			"componentType":5126,
			"count":1280,
			"type":"VEC2"
		},
		{
			"bufferView":4,
			"componentType":5123,
			"count":1920,
			"type":"SCALAR"
		},
		{
			"bufferView":5,
			"componentType":5126,
			"count":51584,
			"max":[
				4.239010810852051,
				16.16706085205078,
				5.859817028045654
			],
			"min":[
				-23.173938751220703,
				-0.5364237427711487,
				-1.78620445728302
			],
			"type":"VEC3"
		},
		{
			"bufferView":6,
			"componentType":5126,
			"count":51584,
			"type":"VEC3"
		},
		{
			"bufferView":7,
			"componentType":5126,
			"count":51584,
			"type":"VEC2"
		},
		{
			"bufferView":8,
			"componentType":5123,
			"count":239664,
			"type":"SCALAR"
		},
		{
			"bufferView":9,
			"componentType":5126,
			"count":50,
			"max":[
				1.54904043674469,
				0,
				1
			],
			"min":[
				-1.555818796157837,
				-1.142004132270813,
				-1
			],
			"type":"VEC3"
		},
		{
			"bufferView":10,
			"componentType":5126,
			"count":50,
			"type":"VEC3"
		},
		{
			"bufferView":11,
			"componentType":5126,
			"count":50,
			"type":"VEC2"
		},
		{
			"bufferView":12,
			"componentType":5126,
			"count":50,
			"type":"VEC2"
		},
		{
			"bufferView":13,
			"componentType":5123,
			"count":102,
			"type":"SCALAR"
		},
		{
			"bufferView":14,
			"componentType":5126,
			"count":130,
			"max":[
				3.0647761821746826,
				2.9211983680725098,
				2.3756213188171387
			],
			"min":[
				-3.0647759437561035,
				-2.9211983680725098,
				-2.3756210803985596
			],
			"type":"VEC3"
		},
		{
			"bufferView":15,
			"componentType":5126,
			"count":130,
			"type":"VEC3"
		},
		{
			"bufferView":16,
			"componentType":5126,
			"count":130,
			"type":"VEC2"
		},
		{
			"bufferView":17,
			"componentType":5126,
			"count":130,
			"type":"VEC2"
		},
		{
			"bufferView":18,
			"componentType":5123,
			"count":360,
			"type":"SCALAR"
		},
		{
			"bufferView":19,
			"componentType":5126,
			"count":124,
			"max":[
				3.370746612548828,
				0.549731969833374,
				2.3756215572357178
			],
			"min":[
				-2.758805513381958,
				-3.762421131134033,
				-2.3756208419799805
			],
			"type":"VEC3"
		},
		{
			"bufferView":20,
			"componentType":5126,
			"count":124,
			"type":"VEC3"
		},
		{
			"bufferView":21,
			"componentType":5126,
			"count":124,
			"type":"VEC2"
		},
		{
			"bufferView":22,
			"componentType":5126,
			"count":124,
			"type":"VEC2"
		},
		{
			"bufferView":23,
			"componentType":5123,
			"count":360,
			"type":"SCALAR"
		},
		{
			"bufferView":24,
			"componentType":5126,
			"count":124,
			"max":[
				3.370746612548828,
				0.549731969833374,
				2.3756215572357178
			],
			"min":[
				-2.758805513381958,
				-3.762421131134033,
				-2.3756208419799805
			],
			"type":"VEC3"
		},
		{
			"bufferView":25,
			"componentType":5126,
			"count":124,
			"type":"VEC3"
		},
		{
			"bufferView":26,
			"componentType":5126,
			"count":124,
			"type":"VEC2"
		},
		{
			"bufferView":27,
			"componentType":5126,
			"count":124,
			"type":"VEC2"
		}
	],
	"bufferViews":[
		{
			"buffer":0,
			"byteLength":15360,
			"byteOffset":0,
			"target":34962
		},
		{
			"buffer":0,
			"byteLength":15360,
			"byteOffset":15360,
			"target":34962
		},
		{
			"buffer":0,
			"byteLength":10240,
			"byteOffset":30720,
			"target":34962
		},
		{
			"buffer":0,
			"byteLength":10240,
			"byteOffset":40960,
			"target":34962
		},
		{
			"buffer":0,
			"byteLength":3840,
			"byteOffset":51200,
			"target":34963
		},
		{
			"buffer":0,
			"byteLength":619008,
			"byteOffset":55040,
			"target":34962
		},
		{
			"buffer":0,
			"byteLength":619008,
			"byteOffset":674048,
			"target":34962
		},
		{
			"buffer":0,
			"byteLength":412672,
			"byteOffset":1293056,
			"target":34962
		},
		{
			"buffer":0,
			"byteLength":479328,
			"byteOffset":1705728,
			"target":34963
		},
		{
			"buffer":0,
			"byteLength":600,
			"byteOffset":2185056,
			"target":34962
		},
		{
			"buffer":0,
			"byteLength":600,
			"byteOffset":2185656,
			"target":34962
		},
		{
			"buffer":0,
			"byteLength":400,
			"byteOffset":2186256,
			"target":34962
		},
		{
			"buffer":0,
			"byteLength":400,
			"byteOffset":2186656,
			"target":34962
		},
		{
			"buffer":0,
			"byteLength":204,
			"byteOffset":2187056,
			"target":34963
		},
		{
			"buffer":0,
			"byteLength":1560,
			"byteOffset":2187260,
			"target":34962
		},
		{
			"buffer":0,
			"byteLength":1560,
			"byteOffset":2188820,
			"target":34962
		},
		{
			"buffer":0,
			"byteLength":1040,
			"byteOffset":2190380,
			"target":34962
		},
		{
			"buffer":0,
			"byteLength":1040,
			"byteOffset":2191420,
			"target":34962
		},
		{
			"buffer":0,
			"byteLength":720,
			"byteOffset":2192460,
			"target":34963
		},
		{
			"buffer":0,
			"byteLength":1488,
			"byteOffset":2193180,
			"target":34962
		},
		{
			"buffer":0,
			"byteLength":1488,
			"byteOffset":2194668,
			"target":34962
		},
		{
			"buffer":0,
			"byteLength":992,
			"byteOffset":2196156,
			"target":34962
		},
		{
			"buffer":0,
			"byteLength":992,
			"byteOffset":2197148,
			"target":34962
		},
		{
			"buffer":0,
			"byteLength":720,
			"byteOffset":2198140,
			"target":34963
		},
		{
			"buffer":0,
			"byteLength":1488,
			"byteOffset":2198860,
			"target":34962
		},
		{
			"buffer":0,
			"byteLength":1488,
			"byteOffset":2200348,
			"target":34962
		},
		{
			"buffer":0,
			"byteLength":992,
			"byteOffset":2201836,
			"target":34962
		},
		{
			"buffer":0,
			"byteLength":992,
			"byteOffset":2202828,
			"target":34962
		}
	],
	"samplers":[
		{
			"magFilter":9729,
			"minFilter":9987
		}
	],
	"buffers":[
		{
			"byteLength":2203820,
			"uri":"EarthSpirit_InventoryShelf.bin"
		}
	]
}
