{
	"asset":{
		"generator":"Khronos glTF Blender I/O v4.1.63",
		"version":"2.0"
	},
	"scene":0,
	"scenes":[
		{
			"name":"Scene",
			"nodes":[
				0,
				1,
				2
			]
		}
	],
	"nodes":[
		{
			"mesh":0,
			"name":"Cube"
		},
		{
			"mesh":1,
			"name":"Torus.009",
			"scale":[
				2.8140132427215576,
				2.8140132427215576,
				2.8140132427215576
			],
			"translation":[
				0,
				2.315847635269165,
				-0.4829854965209961
			]
		},
		{
			"mesh":2,
			"name":"Cube.001",
			"translation":[
				-0.0002736489404924214,
				0.048353035002946854,
				-0.03182924538850784
			]
		}
	],
	"materials":[
		{
			"doubleSided":true,
			"name":"PlasticABSWorn001_2K",
			"pbrMetallicRoughness":{
				"baseColorTexture":{
					"index":0
				},
				"metallicFactor":0,
				"roughnessFactor":0.5
			}
		},
		{
			"doubleSided":true,
			"name":"PlasticABSWorn001_2K.001",
			"pbrMetallicRoughness":{
				"baseColorTexture":{
					"index":1
				},
				"metallicFactor":0,
				"roughnessFactor":0.5
			}
		},
		{
			"doubleSided":true,
			"name":"PlasticMoldDryBlast002_2K",
			"pbrMetallicRoughness":{
				"baseColorTexture":{
					"index":2
				},
				"metallicFactor":0.9894737005233765,
				"roughnessFactor":0.5
			}
		},
		{
			"doubleSided":true,
			"name":"Material.001",
			"pbrMetallicRoughness":{
				"baseColorTexture":{
					"index":3
				},
				"metallicFactor":0
			}
		}
	],
	"meshes":[
		{
			"name":"Cube.001",
			"primitives":[
				{
					"attributes":{
						"POSITION":0,
						"NORMAL":1,
						"TEXCOORD_0":2
					},
					"indices":3,
					"material":0
				},
				{
					"attributes":{
						"POSITION":4,
						"NORMAL":5,
						"TEXCOORD_0":6
					},
					"indices":7,
					"material":1
				}
			]
		},
		{
			"name":"Torus.010",
			"primitives":[
				{
					"attributes":{
						"POSITION":8,
						"NORMAL":9,
						"TEXCOORD_0":10
					},
					"indices":11,
					"material":2
				}
			]
		},
		{
			"name":"Cube.002",
			"primitives":[
				{
					"attributes":{
						"POSITION":12,
						"NORMAL":13,
						"TEXCOORD_0":14
					},
					"indices":15,
					"material":3
				}
			]
		}
	],
	"textures":[
		{
			"sampler":0,
			"source":0
		},
		{
			"sampler":0,
			"source":0
		},
		{
			"sampler":0,
			"source":1
		},
		{
			"sampler":0,
			"source":2
		}
	],
	"images":[
		{
			"mimeType":"image/png",
			"name":"PlasticABSWorn001_COL_2K",
			"uri":"PlasticABSWorn001_COL_2K.png"
		},
		{
			"mimeType":"image/png",
			"name":"PlasticABSWorn001_GLOSS_2K",
			"uri":"PlasticABSWorn001_GLOSS_2K.png"
		},
		{
			"mimeType":"image/png",
			"name":"CalendarPaper",
			"uri":"CalendarPaper.png"
		}
	],
	"accessors":[
		{
			"bufferView":0,
			"componentType":5126,
			"count":87,
			"max":[
				1.0050581693649292,
				2.375835418701172,
				0.4747682213783264
			],
			"min":[
				-1.0022399425506592,
				0.019452828913927078,
				-0.7047103643417358
			],
			"type":"VEC3"
		},
		{
			"bufferView":1,
			"componentType":5126,
			"count":87,
			"type":"VEC3"
		},
		{
			"bufferView":2,
			"componentType":5126,
			"count":87,
			"type":"VEC2"
		},
		{
			"bufferView":3,
			"componentType":5123,
			"count":186,
			"type":"SCALAR"
		},
		{
			"bufferView":4,
			"componentType":5126,
			"count":16,
			"max":[
				1.0050581693649292,
				2.338977813720703,
				0.4495071768760681
			],
			"min":[
				-1.0022399425506592,
				0.0302780419588089,
				-0.6715704202651978
			],
			"type":"VEC3"
		},
		{
			"bufferView":5,
			"componentType":5126,
			"count":16,
			"type":"VEC3"
		},
		{
			"bufferView":6,
			"componentType":5126,
			"count":16,
			"type":"VEC2"
		},
		{
			"bufferView":7,
			"componentType":5123,
			"count":30,
			"type":"SCALAR"
		},
		{
			"bufferView":8,
			"componentType":5126,
			"count":1064,
			"max":[
				0.32362404465675354,
				0.06809639930725098,
				0.06510666012763977
			],
			"min":[
				-0.32363995909690857,
				-0.06810522079467773,
				-0.06525546312332153
			],
			"type":"VEC3"
		},
		{
			"bufferView":9,
			"componentType":5126,
			"count":1064,
			"type":"VEC3"
		},
		{
			"bufferView":10,
			"componentType":5126,
			"count":1064,
			"type":"VEC2"
		},
		{
			"bufferView":11,
			"componentType":5123,
			"count":4620,
			"type":"SCALAR"
		},
		{
			"bufferView":12,
			"componentType":5126,
			"count":24,
			"max":[
				0.9605231285095215,
				2.3199360370635986,
				0.4914851486682892
			],
			"min":[
				-0.9605231285095215,
				0.06638067960739136,
				-0.4159661531448364
			],
			"type":"VEC3"
		},
		{
			"bufferView":13,
			"componentType":5126,
			"count":24,
			"type":"VEC3"
		},
		{
			"bufferView":14,
			"componentType":5126,
			"count":24,
			"type":"VEC2"
		},
		{
			"bufferView":15,
			"componentType":5123,
			"count":36,
			"type":"SCALAR"
		}
	],
	"bufferViews":[
		{
			"buffer":0,
			"byteLength":1044,
			"byteOffset":0,
			"target":34962
		},
		{
			"buffer":0,
			"byteLength":1044,
			"byteOffset":1044,
			"target":34962
		},
		{
			"buffer":0,
			"byteLength":696,
			"byteOffset":2088,
			"target":34962
		},
		{
			"buffer":0,
			"byteLength":372,
			"byteOffset":2784,
			"target":34963
		},
		{
			"buffer":0,
			"byteLength":192,
			"byteOffset":3156,
			"target":34962
		},
		{
			"buffer":0,
			"byteLength":192,
			"byteOffset":3348,
			"target":34962
		},
		{
			"buffer":0,
			"byteLength":128,
			"byteOffset":3540,
			"target":34962
		},
		{
			"buffer":0,
			"byteLength":60,
			"byteOffset":3668,
			"target":34963
		},
		{
			"buffer":0,
			"byteLength":12768,
			"byteOffset":3728,
			"target":34962
		},
		{
			"buffer":0,
			"byteLength":12768,
			"byteOffset":16496,
			"target":34962
		},
		{
			"buffer":0,
			"byteLength":8512,
			"byteOffset":29264,
			"target":34962
		},
		{
			"buffer":0,
			"byteLength":9240,
			"byteOffset":37776,
			"target":34963
		},
		{
			"buffer":0,
			"byteLength":288,
			"byteOffset":47016,
			"target":34962
		},
		{
			"buffer":0,
			"byteLength":288,
			"byteOffset":47304,
			"target":34962
		},
		{
			"buffer":0,
			"byteLength":192,
			"byteOffset":47592,
			"target":34962
		},
		{
			"buffer":0,
			"byteLength":72,
			"byteOffset":47784,
			"target":34963
		}
	],
	"samplers":[
		{
			"magFilter":9729,
			"minFilter":9987
		}
	],
	"buffers":[
		{
			"byteLength":47856,
			"uri":"Calendar_Daily.bin"
		}
	]
}
