{
	"asset":{
		"generator":"Khronos glTF Blender I/O v4.1.63",
		"version":"2.0"
	},
	"scene":0,
	"scenes":[
		{
			"name":"Scene",
			"nodes":[
				0,
				1,
				2
			]
		}
	],
	"nodes":[
		{
			"mesh":0,
			"name":"ChurchDoor1"
		},
		{
			"mesh":1,
			"name":"ChurchDoorHandles"
		},
		{
			"mesh":2,
			"name":"ChurchDoor.2"
		}
	],
	"materials":[
		{
			"doubleSided":true,
			"name":"VeneerWhiteOakRandomMatched001_2K",
			"pbrMetallicRoughness":{
				"baseColorTexture":{
					"index":0
				},
				"metallicFactor":0,
				"roughnessFactor":0.5
			}
		},
		{
			"doubleSided":true,
			"name":"MetalBronzeWorn001_2K",
			"pbrMetallicRoughness":{
				"baseColorTexture":{
					"index":1
				},
				"roughnessFactor":0.5
			}
		}
	],
	"meshes":[
		{
			"name":"Cube",
			"primitives":[
				{
					"attributes":{
						"POSITION":0,
						"NORMAL":1,
						"TEXCOORD_0":2
					},
					"indices":3,
					"material":0
				}
			]
		},
		{
			"name":"Cylinder",
			"primitives":[
				{
					"attributes":{
						"POSITION":4,
						"NORMAL":5,
						"TEXCOORD_0":6
					},
					"indices":7,
					"material":1
				}
			]
		},
		{
			"name":"Cube.001",
			"primitives":[
				{
					"attributes":{
						"POSITION":8,
						"NORMAL":9,
						"TEXCOORD_0":10
					},
					"indices":11,
					"material":0
				}
			]
		}
	],
	"textures":[
		{
			"sampler":0,
			"source":0
		},
		{
			"sampler":0,
			"source":1
		}
	],
	"images":[
		{
			"mimeType":"image/png",
			"name":"VeneerWhiteOakRandomMatched001_COL_2K_METALNESS",
			"uri":"VeneerWhiteOakRandomMatched001_COL_2K_METALNESS.png"
		},
		{
			"mimeType":"image/png",
			"name":"MetalBronzeWorn001_COL_2K_METALNESS",
			"uri":"MetalBronzeWorn001_COL_2K_METALNESS.png"
		}
	],
	"accessors":[
		{
			"bufferView":0,
			"componentType":5126,
			"count":664,
			"max":[
				16.85043716430664,
				41.79534912109375,
				1
			],
			"min":[
				0.005296468734741211,
				-1,
				-1
			],
			"type":"VEC3"
		},
		{
			"bufferView":1,
			"componentType":5126,
			"count":664,
			"type":"VEC3"
		},
		{
			"bufferView":2,
			"componentType":5126,
			"count":664,
			"type":"VEC2"
		},
		{
			"bufferView":3,
			"componentType":5123,
			"count":1428,
			"type":"SCALAR"
		},
		{
			"bufferView":4,
			"componentType":5126,
			"count":420,
			"max":[
				1.3030219078063965,
				17.994821548461914,
				1.8042057752609253
			],
			"min":[
				-1.3030219078063965,
				14.638657569885254,
				-1.8042057752609253
			],
			"type":"VEC3"
		},
		{
			"bufferView":5,
			"componentType":5126,
			"count":420,
			"type":"VEC3"
		},
		{
			"bufferView":6,
			"componentType":5126,
			"count":420,
			"type":"VEC2"
		},
		{
			"bufferView":7,
			"componentType":5123,
			"count":1248,
			"type":"SCALAR"
		},
		{
			"bufferView":8,
			"componentType":5126,
			"count":664,
			"max":[
				-0.005296468734741211,
				41.79534912109375,
				1
			],
			"min":[
				-16.85043716430664,
				-1,
				-1
			],
			"type":"VEC3"
		},
		{
			"bufferView":9,
			"componentType":5126,
			"count":664,
			"type":"VEC3"
		},
		{
			"bufferView":10,
			"componentType":5126,
			"count":664,
			"type":"VEC2"
		},
		{
			"bufferView":11,
			"componentType":5123,
			"count":1428,
			"type":"SCALAR"
		}
	],
	"bufferViews":[
		{
			"buffer":0,
			"byteLength":7968,
			"byteOffset":0,
			"target":34962
		},
		{
			"buffer":0,
			"byteLength":7968,
			"byteOffset":7968,
			"target":34962
		},
		{
			"buffer":0,
			"byteLength":5312,
			"byteOffset":15936,
			"target":34962
		},
		{
			"buffer":0,
			"byteLength":2856,
			"byteOffset":21248,
			"target":34963
		},
		{
			"buffer":0,
			"byteLength":5040,
			"byteOffset":24104,
			"target":34962
		},
		{
			"buffer":0,
			"byteLength":5040,
			"byteOffset":29144,
			"target":34962
		},
		{
			"buffer":0,
			"byteLength":3360,
			"byteOffset":34184,
			"target":34962
		},
		{
			"buffer":0,
			"byteLength":2496,
			"byteOffset":37544,
			"target":34963
		},
		{
			"buffer":0,
			"byteLength":7968,
			"byteOffset":40040,
			"target":34962
		},
		{
			"buffer":0,
			"byteLength":7968,
			"byteOffset":48008,
			"target":34962
		},
		{
			"buffer":0,
			"byteLength":5312,
			"byteOffset":55976,
			"target":34962
		},
		{
			"buffer":0,
			"byteLength":2856,
			"byteOffset":61288,
			"target":34963
		}
	],
	"samplers":[
		{
			"magFilter":9729,
			"minFilter":9987
		}
	],
	"buffers":[
		{
			"byteLength":64144,
			"uri":"ChurchDoor.bin"
		}
	]
}
