{
	"asset":{
		"generator":"Khronos glTF Blender I/O v4.1.63",
		"version":"2.0"
	},
	"extensionsUsed":[
		"KHR_materials_clearcoat",
		"KHR_materials_specular",
		"KHR_materials_sheen",
		"KHR_materials_ior"
	],
	"scene":0,
	"scenes":[
		{
			"name":"Scene",
			"nodes":[
				0,
				1,
				2
			]
		}
	],
	"nodes":[
		{
			"mesh":0,
			"name":"ChurchDoor1"
		},
		{
			"mesh":1,
			"name":"ChurchDoorHandles"
		},
		{
			"mesh":2,
			"name":"ChurchDoor.2"
		}
	],
	"materials":[
		{
			"doubleSided":true,
			"extensions":{
				"KHR_materials_clearcoat":{
					"clearcoatFactor":0.12598425149917603,
					"clearcoatRoughnessFactor":0
				},
				"KHR_materials_specular":{
					"specularFactor":0.6062992215156555
				},
				"KHR_materials_sheen":{
					"sheenColorFactor":[
						1.0,
						1.0,
						1.0
					],
					"sheenRoughnessFactor":0.3976377844810486
				},
				"KHR_materials_ior":{
					"ior":1.2000000476837158
				}
			},
			"name":"Cursed.001",
			"pbrMetallicRoughness":{
				"baseColorTexture":{
					"index":0
				},
				"metallicRoughnessTexture":{
					"index":1
				}
			}
		},
		{
			"doubleSided":true,
			"name":"Procedural Obsidian",
			"pbrMetallicRoughness":{
				"metallicFactor":0
			}
		}
	],
	"meshes":[
		{
			"name":"Cube",
			"primitives":[
				{
					"attributes":{
						"POSITION":0,
						"NORMAL":1,
						"TEXCOORD_0":2
					},
					"indices":3,
					"material":0
				}
			]
		},
		{
			"name":"Cylinder",
			"primitives":[
				{
					"attributes":{
						"POSITION":4,
						"NORMAL":5,
						"TEXCOORD_0":6,
						"TEXCOORD_1":7
					},
					"indices":8,
					"material":1
				}
			]
		},
		{
			"name":"Cube.001",
			"primitives":[
				{
					"attributes":{
						"POSITION":9,
						"NORMAL":10,
						"TEXCOORD_0":11
					},
					"indices":12,
					"material":0
				}
			]
		}
	],
	"textures":[
		{
			"sampler":0,
			"source":0
		},
		{
			"sampler":0,
			"source":1
		}
	],
	"images":[
		{
			"mimeType":"image/jpeg",
			"name":"ground_0027_color_1k",
			"uri":"ground_0027_color_1k.jpg"
		},
		{
			"mimeType":"image/png",
			"name":"ground_0027_ao_1k.jpg",
			"uri":"ground_0027_ao_1k_jpg.png"
		}
	],
	"accessors":[
		{
			"bufferView":0,
			"componentType":5126,
			"count":664,
			"max":[
				16.85043716430664,
				41.79534912109375,
				1
			],
			"min":[
				0.005296468734741211,
				-1,
				-1
			],
			"type":"VEC3"
		},
		{
			"bufferView":1,
			"componentType":5126,
			"count":664,
			"type":"VEC3"
		},
		{
			"bufferView":2,
			"componentType":5126,
			"count":664,
			"type":"VEC2"
		},
		{
			"bufferView":3,
			"componentType":5123,
			"count":1428,
			"type":"SCALAR"
		},
		{
			"bufferView":4,
			"componentType":5126,
			"count":544,
			"max":[
				1.3030219078063965,
				17.994821548461914,
				1.8042057752609253
			],
			"min":[
				-1.3030219078063965,
				14.638657569885254,
				-1.8042057752609253
			],
			"type":"VEC3"
		},
		{
			"bufferView":5,
			"componentType":5126,
			"count":544,
			"type":"VEC3"
		},
		{
			"bufferView":6,
			"componentType":5126,
			"count":544,
			"type":"VEC2"
		},
		{
			"bufferView":7,
			"componentType":5126,
			"count":544,
			"type":"VEC2"
		},
		{
			"bufferView":8,
			"componentType":5123,
			"count":1248,
			"type":"SCALAR"
		},
		{
			"bufferView":9,
			"componentType":5126,
			"count":664,
			"max":[
				-0.005296468734741211,
				41.79534912109375,
				1
			],
			"min":[
				-16.85043716430664,
				-1,
				-1
			],
			"type":"VEC3"
		},
		{
			"bufferView":10,
			"componentType":5126,
			"count":664,
			"type":"VEC3"
		},
		{
			"bufferView":11,
			"componentType":5126,
			"count":664,
			"type":"VEC2"
		},
		{
			"bufferView":12,
			"componentType":5123,
			"count":1428,
			"type":"SCALAR"
		}
	],
	"bufferViews":[
		{
			"buffer":0,
			"byteLength":7968,
			"byteOffset":0,
			"target":34962
		},
		{
			"buffer":0,
			"byteLength":7968,
			"byteOffset":7968,
			"target":34962
		},
		{
			"buffer":0,
			"byteLength":5312,
			"byteOffset":15936,
			"target":34962
		},
		{
			"buffer":0,
			"byteLength":2856,
			"byteOffset":21248,
			"target":34963
		},
		{
			"buffer":0,
			"byteLength":6528,
			"byteOffset":24104,
			"target":34962
		},
		{
			"buffer":0,
			"byteLength":6528,
			"byteOffset":30632,
			"target":34962
		},
		{
			"buffer":0,
			"byteLength":4352,
			"byteOffset":37160,
			"target":34962
		},
		{
			"buffer":0,
			"byteLength":4352,
			"byteOffset":41512,
			"target":34962
		},
		{
			"buffer":0,
			"byteLength":2496,
			"byteOffset":45864,
			"target":34963
		},
		{
			"buffer":0,
			"byteLength":7968,
			"byteOffset":48360,
			"target":34962
		},
		{
			"buffer":0,
			"byteLength":7968,
			"byteOffset":56328,
			"target":34962
		},
		{
			"buffer":0,
			"byteLength":5312,
			"byteOffset":64296,
			"target":34962
		},
		{
			"buffer":0,
			"byteLength":2856,
			"byteOffset":69608,
			"target":34963
		}
	],
	"samplers":[
		{
			"magFilter":9729,
			"minFilter":9987
		}
	],
	"buffers":[
		{
			"byteLength":72464,
			"uri":"ChurchDoor_Cursed.bin"
		}
	]
}
