{
	"asset":{
		"generator":"Khronos glTF Blender I/O v4.1.63",
		"version":"2.0"
	},
	"scene":0,
	"scenes":[
		{
			"name":"Scene",
			"nodes":[
				0,
				1,
				2,
				3,
				4,
				5
			]
		}
	],
	"nodes":[
		{
			"mesh":0,
			"name":"lock"
		},
		{
			"mesh":1,
			"name":"hoop metal lock",
			"scale":[
				0.33088600635528564,
				0.33088600635528564,
				0.33088600635528564
			],
			"translation":[
				-0.008841067552566528,
				1.6529526710510254,
				-1.7269306182861328
			]
		},
		{
			"mesh":2,
			"name":"2d wheel",
			"rotation":[
				0.7071068286895752,
				0,
				0,
				0.7071068286895752
			],
			"scale":[
				1.4466300010681152,
				0.2893093228340149,
				1.4466300010681152
			],
			"translation":[
				-0.008110608905553818,
				0.010316692292690277,
				-0.167687326669693
			]
		},
		{
			"mesh":3,
			"name":"3rd wheel",
			"rotation":[
				0.7071068286895752,
				0,
				0,
				0.7071068286895752
			],
			"scale":[
				1.4466300010681152,
				0.2893093228340149,
				1.4466300010681152
			],
			"translation":[
				-0.008110608905553818,
				0.010316692292690277,
				0.41860446333885193
			]
		},
		{
			"mesh":4,
			"name":"4th wheel",
			"rotation":[
				0.7071068286895752,
				0,
				0,
				0.7071068286895752
			],
			"scale":[
				1.4466300010681152,
				0.2893093228340149,
				1.4466300010681152
			],
			"translation":[
				-0.008110608905553818,
				0.010316692292690277,
				1.0081125497817993
			]
		},
		{
			"mesh":5,
			"name":"1st wheel",
			"rotation":[
				0.7071068286895752,
				0,
				0,
				0.7071068286895752
			],
			"scale":[
				1.4466300010681152,
				0.2893093228340149,
				1.4466300010681152
			],
			"translation":[
				-0.008110608905553818,
				0.010316692292690277,
				-0.7565938234329224
			]
		}
	],
	"materials":[
		{
			"doubleSided":true,
			"name":"steel",
			"normalTexture":{
				"index":0,
				"texCoord":1
			},
			"pbrMetallicRoughness":{
				"baseColorTexture":{
					"index":1,
					"texCoord":1
				},
				"metallicRoughnessTexture":{
					"index":2,
					"texCoord":1
				}
			}
		},
		{
			"doubleSided":true,
			"name":"Stainless Steel",
			"pbrMetallicRoughness":{}
		},
		{
			"doubleSided":true,
			"name":"Wheel With Numbers",
			"pbrMetallicRoughness":{
				"baseColorTexture":{
					"index":3
				},
				"metallicFactor":0,
				"roughnessFactor":0.7000000476837158
			}
		}
	],
	"meshes":[
		{
			"name":"Cube.001",
			"primitives":[
				{
					"attributes":{
						"POSITION":0,
						"NORMAL":1,
						"TEXCOORD_0":2,
						"TEXCOORD_1":3
					},
					"indices":4,
					"material":0
				}
			]
		},
		{
			"name":"Cylinder.004",
			"primitives":[
				{
					"attributes":{
						"POSITION":5,
						"NORMAL":6,
						"TEXCOORD_0":7,
						"TEXCOORD_1":8
					},
					"indices":9,
					"material":1
				}
			]
		},
		{
			"name":"Cylinder.013",
			"primitives":[
				{
					"attributes":{
						"POSITION":10,
						"NORMAL":11,
						"TEXCOORD_0":12
					},
					"indices":13,
					"material":2
				}
			]
		},
		{
			"name":"Cylinder.014",
			"primitives":[
				{
					"attributes":{
						"POSITION":14,
						"NORMAL":15,
						"TEXCOORD_0":16
					},
					"indices":13,
					"material":2
				}
			]
		},
		{
			"name":"Cylinder.015",
			"primitives":[
				{
					"attributes":{
						"POSITION":17,
						"NORMAL":18,
						"TEXCOORD_0":19
					},
					"indices":13,
					"material":2
				}
			]
		},
		{
			"name":"Cylinder.016",
			"primitives":[
				{
					"attributes":{
						"POSITION":20,
						"NORMAL":21,
						"TEXCOORD_0":22
					},
					"indices":13,
					"material":2
				}
			]
		}
	],
	"textures":[
		{
			"sampler":0,
			"source":0
		},
		{
			"sampler":0,
			"source":1
		},
		{
			"sampler":0,
			"source":2
		},
		{
			"sampler":0,
			"source":3
		}
	],
	"images":[
		{
			"mimeType":"image/jpeg",
			"name":"None_Normal_OpenGL",
			"uri":"None_Normal_OpenGL.jpg"
		},
		{
			"mimeType":"image/jpeg",
			"name":"None_BaseColor",
			"uri":"None_BaseColor.jpg"
		},
		{
			"mimeType":"image/png",
			"name":"None_Metallic.jpg-None_Roughness.jpg",
			"uri":"None_Metallic_jpg-None_Roughness_jpg.png"
		},
		{
			"mimeType":"image/png",
			"name":"Wheel With Numbers Base Color",
			"uri":"Wheel%20With%20Numbers%20Base%20Color.png"
		}
	],
	"accessors":[
		{
			"bufferView":0,
			"componentType":5126,
			"count":498,
			"max":[
				0.9832192063331604,
				1.741106390953064,
				2.595235824584961
			],
			"min":[
				-0.9832192063331604,
				-1.2961093187332153,
				-2.595235824584961
			],
			"type":"VEC3"
		},
		{
			"bufferView":1,
			"componentType":5126,
			"count":498,
			"type":"VEC3"
		},
		{
			"bufferView":2,
			"componentType":5126,
			"count":498,
			"type":"VEC2"
		},
		{
			"bufferView":3,
			"componentType":5126,
			"count":498,
			"type":"VEC2"
		},
		{
			"bufferView":4,
			"componentType":5123,
			"count":1698,
			"type":"SCALAR"
		},
		{
			"bufferView":5,
			"componentType":5126,
			"count":379,
			"max":[
				1.000000238418579,
				10.111236572265625,
				11.510771751403809
			],
			"min":[
				-1.000000238418579,
				-2.7332100868225098,
				-1
			],
			"type":"VEC3"
		},
		{
			"bufferView":6,
			"componentType":5126,
			"count":379,
			"type":"VEC3"
		},
		{
			"bufferView":7,
			"componentType":5126,
			"count":379,
			"type":"VEC2"
		},
		{
			"bufferView":8,
			"componentType":5126,
			"count":379,
			"type":"VEC2"
		},
		{
			"bufferView":9,
			"componentType":5123,
			"count":1236,
			"type":"SCALAR"
		},
		{
			"bufferView":10,
			"componentType":5126,
			"count":60,
			"max":[
				0.9510565400123596,
				1,
				1
			],
			"min":[
				-0.9510565400123596,
				-1,
				-1
			],
			"type":"VEC3"
		},
		{
			"bufferView":11,
			"componentType":5126,
			"count":60,
			"type":"VEC3"
		},
		{
			"bufferView":12,
			"componentType":5126,
			"count":60,
			"type":"VEC2"
		},
		{
			"bufferView":13,
			"componentType":5123,
			"count":108,
			"type":"SCALAR"
		},
		{
			"bufferView":14,
			"componentType":5126,
			"count":60,
			"max":[
				0.9510565400123596,
				1,
				1
			],
			"min":[
				-0.9510565400123596,
				-1,
				-1
			],
			"type":"VEC3"
		},
		{
			"bufferView":15,
			"componentType":5126,
			"count":60,
			"type":"VEC3"
		},
		{
			"bufferView":16,
			"componentType":5126,
			"count":60,
			"type":"VEC2"
		},
		{
			"bufferView":17,
			"componentType":5126,
			"count":60,
			"max":[
				0.9510565400123596,
				1,
				1
			],
			"min":[
				-0.9510565400123596,
				-1,
				-1
			],
			"type":"VEC3"
		},
		{
			"bufferView":18,
			"componentType":5126,
			"count":60,
			"type":"VEC3"
		},
		{
			"bufferView":19,
			"componentType":5126,
			"count":60,
			"type":"VEC2"
		},
		{
			"bufferView":20,
			"componentType":5126,
			"count":60,
			"max":[
				0.9510565400123596,
				1,
				1
			],
			"min":[
				-0.9510565400123596,
				-1,
				-1
			],
			"type":"VEC3"
		},
		{
			"bufferView":21,
			"componentType":5126,
			"count":60,
			"type":"VEC3"
		},
		{
			"bufferView":22,
			"componentType":5126,
			"count":60,
			"type":"VEC2"
		}
	],
	"bufferViews":[
		{
			"buffer":0,
			"byteLength":5976,
			"byteOffset":0,
			"target":34962
		},
		{
			"buffer":0,
			"byteLength":5976,
			"byteOffset":5976,
			"target":34962
		},
		{
			"buffer":0,
			"byteLength":3984,
			"byteOffset":11952,
			"target":34962
		},
		{
			"buffer":0,
			"byteLength":3984,
			"byteOffset":15936,
			"target":34962
		},
		{
			"buffer":0,
			"byteLength":3396,
			"byteOffset":19920,
			"target":34963
		},
		{
			"buffer":0,
			"byteLength":4548,
			"byteOffset":23316,
			"target":34962
		},
		{
			"buffer":0,
			"byteLength":4548,
			"byteOffset":27864,
			"target":34962
		},
		{
			"buffer":0,
			"byteLength":3032,
			"byteOffset":32412,
			"target":34962
		},
		{
			"buffer":0,
			"byteLength":3032,
			"byteOffset":35444,
			"target":34962
		},
		{
			"buffer":0,
			"byteLength":2472,
			"byteOffset":38476,
			"target":34963
		},
		{
			"buffer":0,
			"byteLength":720,
			"byteOffset":40948,
			"target":34962
		},
		{
			"buffer":0,
			"byteLength":720,
			"byteOffset":41668,
			"target":34962
		},
		{
			"buffer":0,
			"byteLength":480,
			"byteOffset":42388,
			"target":34962
		},
		{
			"buffer":0,
			"byteLength":216,
			"byteOffset":42868,
			"target":34963
		},
		{
			"buffer":0,
			"byteLength":720,
			"byteOffset":43084,
			"target":34962
		},
		{
			"buffer":0,
			"byteLength":720,
			"byteOffset":43804,
			"target":34962
		},
		{
			"buffer":0,
			"byteLength":480,
			"byteOffset":44524,
			"target":34962
		},
		{
			"buffer":0,
			"byteLength":720,
			"byteOffset":45004,
			"target":34962
		},
		{
			"buffer":0,
			"byteLength":720,
			"byteOffset":45724,
			"target":34962
		},
		{
			"buffer":0,
			"byteLength":480,
			"byteOffset":46444,
			"target":34962
		},
		{
			"buffer":0,
			"byteLength":720,
			"byteOffset":46924,
			"target":34962
		},
		{
			"buffer":0,
			"byteLength":720,
			"byteOffset":47644,
			"target":34962
		},
		{
			"buffer":0,
			"byteLength":480,
			"byteOffset":48364,
			"target":34962
		}
	],
	"samplers":[
		{
			"magFilter":9729,
			"minFilter":9987
		}
	],
	"buffers":[
		{
			"byteLength":48844,
			"uri":"CombinationLock.bin"
		}
	]
}
