{
	"asset":{
		"generator":"Khronos glTF Blender I/O v4.1.63",
		"version":"2.0"
	},
	"scene":0,
	"scenes":[
		{
			"name":"Scene",
			"nodes":[
				0,
				1
			]
		}
	],
	"nodes":[
		{
			"mesh":0,
			"name":"Contaier_MetalPolishBase",
			"translation":[
				0,
				-0.05008619278669357,
				0
			]
		},
		{
			"mesh":1,
			"name":"Container_MetalPolishLid",
			"translation":[
				0,
				9.880959987640381e-05,
				0
			]
		}
	],
	"materials":[
		{
			"doubleSided":true,
			"name":"MetalGalvanizedSteelWorn001_2K",
			"pbrMetallicRoughness":{
				"baseColorTexture":{
					"index":0
				},
				"roughnessFactor":0.5
			}
		}
	],
	"meshes":[
		{
			"name":"Cylinder",
			"primitives":[
				{
					"attributes":{
						"POSITION":0,
						"NORMAL":1,
						"TEXCOORD_0":2
					},
					"indices":3,
					"material":0
				}
			]
		},
		{
			"name":"Cylinder.001",
			"primitives":[
				{
					"attributes":{
						"POSITION":4,
						"NORMAL":5,
						"TEXCOORD_0":6
					},
					"indices":7,
					"material":0
				}
			]
		}
	],
	"textures":[
		{
			"sampler":0,
			"source":0
		}
	],
	"images":[
		{
			"mimeType":"image/jpeg",
			"name":"MetalGalvanizedSteelWorn001_COL_2K_METALNESS.jpg",
			"uri":"MetalGalvanizedSteelWorn001_COL_2K_METALNESS_jpg.jpg"
		}
	],
	"accessors":[
		{
			"bufferView":0,
			"componentType":5126,
			"count":959,
			"max":[
				0.9874500036239624,
				0.04112008213996887,
				0.9831330180168152
			],
			"min":[
				-0.983939528465271,
				-0.4523164629936218,
				-0.9890123605728149
			],
			"type":"VEC3"
		},
		{
			"bufferView":1,
			"componentType":5126,
			"count":959,
			"type":"VEC3"
		},
		{
			"bufferView":2,
			"componentType":5126,
			"count":959,
			"type":"VEC2"
		},
		{
			"bufferView":3,
			"componentType":5123,
			"count":4800,
			"type":"SCALAR"
		},
		{
			"bufferView":4,
			"componentType":5126,
			"count":1355,
			"max":[
				0.9984346628189087,
				0.240797758102417,
				0.9984346032142639
			],
			"min":[
				-0.9984346032142639,
				-0.011132308281958103,
				-0.9984346032142639
			],
			"type":"VEC3"
		},
		{
			"bufferView":5,
			"componentType":5126,
			"count":1355,
			"type":"VEC3"
		},
		{
			"bufferView":6,
			"componentType":5126,
			"count":1355,
			"type":"VEC2"
		},
		{
			"bufferView":7,
			"componentType":5123,
			"count":6720,
			"type":"SCALAR"
		}
	],
	"bufferViews":[
		{
			"buffer":0,
			"byteLength":11508,
			"byteOffset":0,
			"target":34962
		},
		{
			"buffer":0,
			"byteLength":11508,
			"byteOffset":11508,
			"target":34962
		},
		{
			"buffer":0,
			"byteLength":7672,
			"byteOffset":23016,
			"target":34962
		},
		{
			"buffer":0,
			"byteLength":9600,
			"byteOffset":30688,
			"target":34963
		},
		{
			"buffer":0,
			"byteLength":16260,
			"byteOffset":40288,
			"target":34962
		},
		{
			"buffer":0,
			"byteLength":16260,
			"byteOffset":56548,
			"target":34962
		},
		{
			"buffer":0,
			"byteLength":10840,
			"byteOffset":72808,
			"target":34962
		},
		{
			"buffer":0,
			"byteLength":13440,
			"byteOffset":83648,
			"target":34963
		}
	],
	"samplers":[
		{
			"magFilter":9729,
			"minFilter":9987
		}
	],
	"buffers":[
		{
			"byteLength":97088,
			"uri":"Container_MetalPolish1.bin"
		}
	]
}
