{
	"asset":{
		"generator":"Khronos glTF Blender I/O v4.1.63",
		"version":"2.0"
	},
	"scene":0,
	"scenes":[
		{
			"name":"Scene",
			"nodes":[
				0,
				1,
				2
			]
		}
	],
	"nodes":[
		{
			"mesh":0,
			"name":"SpotCat",
			"scale":[
				0.5,
				0.5,
				0.5
			],
			"translation":[
				0,
				0.5,
				0
			]
		},
		{
			"mesh":1,
			"name":"OrangeCat",
			"scale":[
				0.5,
				0.5,
				0.5
			],
			"translation":[
				-1.1430641412734985,
				0.5,
				0
			]
		},
		{
			"mesh":2,
			"name":"CalicoCat",
			"scale":[
				0.5,
				0.5,
				0.5
			],
			"translation":[
				1.1266565322875977,
				0.5,
				0
			]
		}
	],
	"materials":[
		{
			"doubleSided":true,
			"name":"Spot Cat",
			"pbrMetallicRoughness":{
				"baseColorTexture":{
					"index":0
				},
				"metallicFactor":0,
				"roughnessFactor":0.5
			}
		},
		{
			"doubleSided":true,
			"name":"Orange Cat",
			"pbrMetallicRoughness":{
				"baseColorTexture":{
					"index":1
				},
				"metallicFactor":0,
				"roughnessFactor":0.5
			}
		},
		{
			"doubleSided":true,
			"name":"Calico Cat",
			"pbrMetallicRoughness":{
				"baseColorTexture":{
					"index":2
				},
				"metallicFactor":0,
				"roughnessFactor":0.5
			}
		}
	],
	"meshes":[
		{
			"name":"Cube",
			"primitives":[
				{
					"attributes":{
						"POSITION":0,
						"NORMAL":1,
						"TEXCOORD_0":2
					},
					"indices":3,
					"material":0
				}
			]
		},
		{
			"name":"Cube.001",
			"primitives":[
				{
					"attributes":{
						"POSITION":4,
						"NORMAL":5,
						"TEXCOORD_0":6
					},
					"indices":3,
					"material":1
				}
			]
		},
		{
			"name":"Cube.002",
			"primitives":[
				{
					"attributes":{
						"POSITION":7,
						"NORMAL":8,
						"TEXCOORD_0":9
					},
					"indices":3,
					"material":2
				}
			]
		}
	],
	"textures":[
		{
			"sampler":0,
			"source":0
		},
		{
			"sampler":0,
			"source":1
		},
		{
			"sampler":0,
			"source":2
		}
	],
	"images":[
		{
			"mimeType":"image/png",
			"name":"Spot Cat Material",
			"uri":"Spot%20Cat%20Material.png"
		},
		{
			"mimeType":"image/png",
			"name":"Orange Cat Material",
			"uri":"Orange%20Cat%20Material.png"
		},
		{
			"mimeType":"image/png",
			"name":"Calico Cat Material",
			"uri":"Calico%20Cat%20Material.png"
		}
	],
	"accessors":[
		{
			"bufferView":0,
			"componentType":5126,
			"count":756,
			"max":[
				1.0810959339141846,
				1.299999713897705,
				1.2000001668930054
			],
			"min":[
				-1.0802459716796875,
				-1,
				-1.088570237159729
			],
			"type":"VEC3"
		},
		{
			"bufferView":1,
			"componentType":5126,
			"count":756,
			"type":"VEC3"
		},
		{
			"bufferView":2,
			"componentType":5126,
			"count":756,
			"type":"VEC2"
		},
		{
			"bufferView":3,
			"componentType":5123,
			"count":1854,
			"type":"SCALAR"
		},
		{
			"bufferView":4,
			"componentType":5126,
			"count":756,
			"max":[
				1.0810959339141846,
				1.299999713897705,
				1.2000001668930054
			],
			"min":[
				-1.0802459716796875,
				-1,
				-1.088570237159729
			],
			"type":"VEC3"
		},
		{
			"bufferView":5,
			"componentType":5126,
			"count":756,
			"type":"VEC3"
		},
		{
			"bufferView":6,
			"componentType":5126,
			"count":756,
			"type":"VEC2"
		},
		{
			"bufferView":7,
			"componentType":5126,
			"count":756,
			"max":[
				1.0810959339141846,
				1.299999713897705,
				1.2000001668930054
			],
			"min":[
				-1.0802459716796875,
				-1,
				-1.088570237159729
			],
			"type":"VEC3"
		},
		{
			"bufferView":8,
			"componentType":5126,
			"count":756,
			"type":"VEC3"
		},
		{
			"bufferView":9,
			"componentType":5126,
			"count":756,
			"type":"VEC2"
		}
	],
	"bufferViews":[
		{
			"buffer":0,
			"byteLength":9072,
			"byteOffset":0,
			"target":34962
		},
		{
			"buffer":0,
			"byteLength":9072,
			"byteOffset":9072,
			"target":34962
		},
		{
			"buffer":0,
			"byteLength":6048,
			"byteOffset":18144,
			"target":34962
		},
		{
			"buffer":0,
			"byteLength":3708,
			"byteOffset":24192,
			"target":34963
		},
		{
			"buffer":0,
			"byteLength":9072,
			"byteOffset":27900,
			"target":34962
		},
		{
			"buffer":0,
			"byteLength":9072,
			"byteOffset":36972,
			"target":34962
		},
		{
			"buffer":0,
			"byteLength":6048,
			"byteOffset":46044,
			"target":34962
		},
		{
			"buffer":0,
			"byteLength":9072,
			"byteOffset":52092,
			"target":34962
		},
		{
			"buffer":0,
			"byteLength":9072,
			"byteOffset":61164,
			"target":34962
		},
		{
			"buffer":0,
			"byteLength":6048,
			"byteOffset":70236,
			"target":34962
		}
	],
	"samplers":[
		{
			"magFilter":9729,
			"minFilter":9987
		}
	],
	"buffers":[
		{
			"byteLength":76284,
			"uri":"Cube%20Cat%20Collection.bin"
		}
	]
}
