{
	"asset":{
		"generator":"Khronos glTF Blender I/O v4.1.63",
		"version":"2.0"
	},
	"scene":0,
	"scenes":[
		{
			"name":"Scene",
			"nodes":[
				0,
				1,
				2,
				3
			]
		}
	],
	"nodes":[
		{
			"mesh":0,
			"name":"Sphere",
			"scale":[
				5.136303424835205,
				5.136303424835205,
				5.136303424835205
			],
			"translation":[
				0,
				4.29766845703125,
				0
			]
		},
		{
			"name":"Empty"
		},
		{
			"mesh":1,
			"name":"Sphere.003",
			"rotation":[
				0.6419584155082703,
				0.09715676307678223,
				-0.11381025612354279,
				0.7519955039024353
			],
			"translation":[
				-0.7652072310447693,
				5.949794769287109,
				8.03638744354248
			]
		},
		{
			"mesh":2,
			"name":"Sphere.001",
			"rotation":[
				0.6419584155082703,
				0.09715676307678223,
				-0.11381025612354279,
				0.7519955039024353
			],
			"translation":[
				-0.7652072310447693,
				5.839034557342529,
				-7.844819068908691
			]
		}
	],
	"materials":[
		{
			"doubleSided":true,
			"name":"Material.001",
			"pbrMetallicRoughness":{
				"baseColorFactor":[
					0.8001017570495605,
					0.050096545368433,
					0.08766960352659225,
					1
				],
				"metallicFactor":0.48470208048820496,
				"roughnessFactor":0.5
			}
		}
	],
	"meshes":[
		{
			"name":"Sphere",
			"primitives":[
				{
					"attributes":{
						"POSITION":0,
						"NORMAL":1,
						"TEXCOORD_0":2
					},
					"indices":3,
					"material":0
				}
			]
		},
		{
			"name":"Sphere.003",
			"primitives":[
				{
					"attributes":{
						"POSITION":4,
						"NORMAL":5,
						"TEXCOORD_0":6
					},
					"indices":7,
					"material":0
				}
			]
		},
		{
			"name":"Sphere.006",
			"primitives":[
				{
					"attributes":{
						"POSITION":8,
						"NORMAL":9,
						"TEXCOORD_0":10
					},
					"indices":11,
					"material":0
				}
			]
		}
	],
	"accessors":[
		{
			"bufferView":0,
			"componentType":5126,
			"count":559,
			"max":[
				0.9435600638389587,
				2.445007562637329,
				0.9608784317970276
			],
			"min":[
				-0.9563797116279602,
				-0.9803168773651123,
				-0.9695034027099609
			],
			"type":"VEC3"
		},
		{
			"bufferView":1,
			"componentType":5126,
			"count":559,
			"type":"VEC3"
		},
		{
			"bufferView":2,
			"componentType":5126,
			"count":559,
			"type":"VEC2"
		},
		{
			"bufferView":3,
			"componentType":5123,
			"count":2880,
			"type":"SCALAR"
		},
		{
			"bufferView":4,
			"componentType":5126,
			"count":2795,
			"max":[
				1.4430702924728394,
				2.4880714416503906,
				1.0890542268753052
			],
			"min":[
				-0.9994978308677673,
				-2.0430045127868652,
				-2.857152223587036
			],
			"type":"VEC3"
		},
		{
			"bufferView":5,
			"componentType":5126,
			"count":2795,
			"type":"VEC3"
		},
		{
			"bufferView":6,
			"componentType":5126,
			"count":2795,
			"type":"VEC2"
		},
		{
			"bufferView":7,
			"componentType":5123,
			"count":14400,
			"type":"SCALAR"
		},
		{
			"bufferView":8,
			"componentType":5126,
			"count":2795,
			"max":[
				1.4147189855575562,
				2.4680280685424805,
				1.0428789854049683
			],
			"min":[
				-0.9950520992279053,
				-2.0033841133117676,
				-2.815178155899048
			],
			"type":"VEC3"
		},
		{
			"bufferView":9,
			"componentType":5126,
			"count":2795,
			"type":"VEC3"
		},
		{
			"bufferView":10,
			"componentType":5126,
			"count":2795,
			"type":"VEC2"
		},
		{
			"bufferView":11,
			"componentType":5123,
			"count":14400,
			"type":"SCALAR"
		}
	],
	"bufferViews":[
		{
			"buffer":0,
			"byteLength":6708,
			"byteOffset":0,
			"target":34962
		},
		{
			"buffer":0,
			"byteLength":6708,
			"byteOffset":6708,
			"target":34962
		},
		{
			"buffer":0,
			"byteLength":4472,
			"byteOffset":13416,
			"target":34962
		},
		{
			"buffer":0,
			"byteLength":5760,
			"byteOffset":17888,
			"target":34963
		},
		{
			"buffer":0,
			"byteLength":33540,
			"byteOffset":23648,
			"target":34962
		},
		{
			"buffer":0,
			"byteLength":33540,
			"byteOffset":57188,
			"target":34962
		},
		{
			"buffer":0,
			"byteLength":22360,
			"byteOffset":90728,
			"target":34962
		},
		{
			"buffer":0,
			"byteLength":28800,
			"byteOffset":113088,
			"target":34963
		},
		{
			"buffer":0,
			"byteLength":33540,
			"byteOffset":141888,
			"target":34962
		},
		{
			"buffer":0,
			"byteLength":33540,
			"byteOffset":175428,
			"target":34962
		},
		{
			"buffer":0,
			"byteLength":22360,
			"byteOffset":208968,
			"target":34962
		},
		{
			"buffer":0,
			"byteLength":28800,
			"byteOffset":231328,
			"target":34963
		}
	],
	"buffers":[
		{
			"byteLength":260128,
			"uri":"FireSpirit_Normal.bin"
		}
	]
}
