{
	"asset":{
		"generator":"Khronos glTF Blender I/O v4.1.63",
		"version":"2.0"
	},
	"scene":0,
	"scenes":[
		{
			"name":"Scene",
			"nodes":[
				0
			]
		}
	],
	"nodes":[
		{
			"mesh":0,
			"name":"Window",
			"scale":[
				4.474515438079834,
				1.504103422164917,
				1.504103422164917
			],
			"translation":[
				-0.2889600396156311,
				8.220932960510254,
				-0.10519099235534668
			]
		}
	],
	"materials":[
		{
			"doubleSided":true,
			"name":"Material.002",
			"pbrMetallicRoughness":{
				"baseColorFactor":[
					0.010783981531858444,
					0.010783981531858444,
					0.010783981531858444,
					1
				],
				"metallicFactor":0,
				"roughnessFactor":0.5
			}
		},
		{
			"doubleSided":true,
			"name":"Material.003",
			"pbrMetallicRoughness":{
				"baseColorFactor":[
					0.0777662843465805,
					0.017936771735548973,
					0,
					1
				],
				"metallicFactor":0.8620689511299133,
				"roughnessFactor":0.5
			}
		},
		{
			"alphaMode":"BLEND",
			"doubleSided":true,
			"name":"Material.004",
			"pbrMetallicRoughness":{}
		},
		{
			"doubleSided":true,
			"name":"Material",
			"pbrMetallicRoughness":{
				"baseColorFactor":[
					0.3813905417919159,
					0.2015475183725357,
					0,
					1
				],
				"metallicFactor":0,
				"roughnessFactor":0.5
			}
		}
	],
	"meshes":[
		{
			"name":"Cube.001",
			"primitives":[
				{
					"attributes":{
						"POSITION":0,
						"NORMAL":1,
						"TEXCOORD_0":2
					},
					"indices":3,
					"material":0
				},
				{
					"attributes":{
						"POSITION":4,
						"NORMAL":5,
						"TEXCOORD_0":6
					},
					"indices":7,
					"material":1
				},
				{
					"attributes":{
						"POSITION":8,
						"NORMAL":9,
						"TEXCOORD_0":10
					},
					"indices":11,
					"material":2
				},
				{
					"attributes":{
						"POSITION":12,
						"NORMAL":13,
						"TEXCOORD_0":14
					},
					"indices":15,
					"material":3
				}
			]
		}
	],
	"accessors":[
		{
			"bufferView":0,
			"componentType":5126,
			"count":479,
			"max":[
				1.0484116077423096,
				1.3133286237716675,
				1.1379884481430054
			],
			"min":[
				-1.051193118095398,
				-2.033200263977051,
				-1.143916368484497
			],
			"type":"VEC3"
		},
		{
			"bufferView":1,
			"componentType":5126,
			"count":479,
			"type":"VEC3"
		},
		{
			"bufferView":2,
			"componentType":5126,
			"count":479,
			"type":"VEC2"
		},
		{
			"bufferView":3,
			"componentType":5123,
			"count":2025,
			"type":"SCALAR"
		},
		{
			"bufferView":4,
			"componentType":5126,
			"count":1219,
			"max":[
				1.7726390361785889,
				-2.533200263977051,
				2.6993894577026367
			],
			"min":[
				-1.7985104322433472,
				-6.059890270233154,
				-2.755190849304199
			],
			"type":"VEC3"
		},
		{
			"bufferView":5,
			"componentType":5126,
			"count":1219,
			"type":"VEC3"
		},
		{
			"bufferView":6,
			"componentType":5126,
			"count":1219,
			"type":"VEC2"
		},
		{
			"bufferView":7,
			"componentType":5123,
			"count":7458,
			"type":"SCALAR"
		},
		{
			"bufferView":8,
			"componentType":5126,
			"count":62,
			"max":[
				1,
				0.3206183910369873,
				1
			],
			"min":[
				-1,
				-0.7310285568237305,
				-1
			],
			"type":"VEC3"
		},
		{
			"bufferView":9,
			"componentType":5126,
			"count":62,
			"type":"VEC3"
		},
		{
			"bufferView":10,
			"componentType":5126,
			"count":62,
			"type":"VEC2"
		},
		{
			"bufferView":11,
			"componentType":5123,
			"count":102,
			"type":"SCALAR"
		},
		{
			"bufferView":12,
			"componentType":5126,
			"count":84,
			"max":[
				1.3697638511657715,
				-2.033200263977051,
				2.0999999046325684
			],
			"min":[
				-1.3697638511657715,
				-2.624675750732422,
				-2.0999999046325684
			],
			"type":"VEC3"
		},
		{
			"bufferView":13,
			"componentType":5126,
			"count":84,
			"type":"VEC3"
		},
		{
			"bufferView":14,
			"componentType":5126,
			"count":84,
			"type":"VEC2"
		},
		{
			"bufferView":15,
			"componentType":5123,
			"count":246,
			"type":"SCALAR"
		}
	],
	"bufferViews":[
		{
			"buffer":0,
			"byteLength":5748,
			"byteOffset":0,
			"target":34962
		},
		{
			"buffer":0,
			"byteLength":5748,
			"byteOffset":5748,
			"target":34962
		},
		{
			"buffer":0,
			"byteLength":3832,
			"byteOffset":11496,
			"target":34962
		},
		{
			"buffer":0,
			"byteLength":4050,
			"byteOffset":15328,
			"target":34963
		},
		{
			"buffer":0,
			"byteLength":14628,
			"byteOffset":19380,
			"target":34962
		},
		{
			"buffer":0,
			"byteLength":14628,
			"byteOffset":34008,
			"target":34962
		},
		{
			"buffer":0,
			"byteLength":9752,
			"byteOffset":48636,
			"target":34962
		},
		{
			"buffer":0,
			"byteLength":14916,
			"byteOffset":58388,
			"target":34963
		},
		{
			"buffer":0,
			"byteLength":744,
			"byteOffset":73304,
			"target":34962
		},
		{
			"buffer":0,
			"byteLength":744,
			"byteOffset":74048,
			"target":34962
		},
		{
			"buffer":0,
			"byteLength":496,
			"byteOffset":74792,
			"target":34962
		},
		{
			"buffer":0,
			"byteLength":204,
			"byteOffset":75288,
			"target":34963
		},
		{
			"buffer":0,
			"byteLength":1008,
			"byteOffset":75492,
			"target":34962
		},
		{
			"buffer":0,
			"byteLength":1008,
			"byteOffset":76500,
			"target":34962
		},
		{
			"buffer":0,
			"byteLength":672,
			"byteOffset":77508,
			"target":34962
		},
		{
			"buffer":0,
			"byteLength":492,
			"byteOffset":78180,
			"target":34963
		}
	],
	"buffers":[
		{
			"byteLength":78672,
			"uri":"Float_Bier.bin"
		}
	]
}
