{
	"asset":{
		"generator":"Khronos glTF Blender I/O v4.1.63",
		"version":"2.0"
	},
	"scene":0,
	"scenes":[
		{
			"name":"Scene",
			"nodes":[
				0,
				1
			]
		}
	],
	"nodes":[
		{
			"mesh":0,
			"name":"BookCover"
		},
		{
			"mesh":1,
			"name":"BookPages",
			"translation":[
				0,
				-1.4700303077697754,
				-0.002899169921875
			]
		}
	],
	"materials":[
		{
			"doubleSided":true,
			"name":"FabricLeatherCowhide001_2K",
			"pbrMetallicRoughness":{
				"baseColorTexture":{
					"index":0
				},
				"metallicFactor":0,
				"roughnessFactor":0.5
			}
		},
		{
			"doubleSided":true,
			"name":"ConcreteBlocksPavingSquareStack001_2K",
			"pbrMetallicRoughness":{
				"baseColorTexture":{
					"index":1
				},
				"metallicFactor":0,
				"roughnessFactor":0.539370059967041
			}
		}
	],
	"meshes":[
		{
			"name":"Cube.001",
			"primitives":[
				{
					"attributes":{
						"POSITION":0,
						"NORMAL":1,
						"TEXCOORD_0":2
					},
					"indices":3,
					"material":0
				}
			]
		},
		{
			"name":"Cube.002",
			"primitives":[
				{
					"attributes":{
						"POSITION":4,
						"NORMAL":5,
						"TEXCOORD_0":6
					},
					"indices":7,
					"material":1
				}
			]
		}
	],
	"textures":[
		{
			"sampler":0,
			"source":0
		},
		{
			"sampler":0,
			"source":1
		}
	],
	"images":[
		{
			"mimeType":"image/jpeg",
			"name":"FabricLeatherCowhide001_COL_VAR2_2K",
			"uri":"FabricLeatherCowhide001_COL_VAR2_2K.jpg"
		},
		{
			"mimeType":"image/jpeg",
			"name":"everytexture.com-stock-paper-texture-00014",
			"uri":"everytexture_com-stock-paper-texture-00014.jpg"
		}
	],
	"accessors":[
		{
			"bufferView":0,
			"componentType":5126,
			"count":485,
			"max":[
				7.058424472808838,
				0.05771543085575104,
				5.797101020812988
			],
			"min":[
				-7.058424472808838,
				-0.41506898403167725,
				-5.802899360656738
			],
			"type":"VEC3"
		},
		{
			"bufferView":1,
			"componentType":5126,
			"count":485,
			"type":"VEC3"
		},
		{
			"bufferView":2,
			"componentType":5126,
			"count":485,
			"type":"VEC2"
		},
		{
			"bufferView":3,
			"componentType":5123,
			"count":1284,
			"type":"SCALAR"
		},
		{
			"bufferView":4,
			"componentType":5126,
			"count":192,
			"max":[
				6.873735427856445,
				2.125852584838867,
				5.648238658905029
			],
			"min":[
				-6.873735427856445,
				1.234344244003296,
				-5.648238658905029
			],
			"type":"VEC3"
		},
		{
			"bufferView":5,
			"componentType":5126,
			"count":192,
			"type":"VEC3"
		},
		{
			"bufferView":6,
			"componentType":5126,
			"count":192,
			"type":"VEC2"
		},
		{
			"bufferView":7,
			"componentType":5123,
			"count":552,
			"type":"SCALAR"
		}
	],
	"bufferViews":[
		{
			"buffer":0,
			"byteLength":5820,
			"byteOffset":0,
			"target":34962
		},
		{
			"buffer":0,
			"byteLength":5820,
			"byteOffset":5820,
			"target":34962
		},
		{
			"buffer":0,
			"byteLength":3880,
			"byteOffset":11640,
			"target":34962
		},
		{
			"buffer":0,
			"byteLength":2568,
			"byteOffset":15520,
			"target":34963
		},
		{
			"buffer":0,
			"byteLength":2304,
			"byteOffset":18088,
			"target":34962
		},
		{
			"buffer":0,
			"byteLength":2304,
			"byteOffset":20392,
			"target":34962
		},
		{
			"buffer":0,
			"byteLength":1536,
			"byteOffset":22696,
			"target":34962
		},
		{
			"buffer":0,
			"byteLength":1104,
			"byteOffset":24232,
			"target":34963
		}
	],
	"samplers":[
		{
			"magFilter":9729,
			"minFilter":9987
		}
	],
	"buffers":[
		{
			"byteLength":25336,
			"uri":"Journal_Open.bin"
		}
	]
}
