{
	"asset":{
		"generator":"Khronos glTF Blender I/O v4.1.63",
		"version":"2.0"
	},
	"scene":0,
	"scenes":[
		{
			"name":"Scene",
			"nodes":[
				0,
				1,
				2,
				3
			]
		}
	],
	"nodes":[
		{
			"mesh":0,
			"name":"Marble",
			"translation":[
				0,
				4.120905876159668,
				0
			]
		},
		{
			"mesh":1,
			"name":"Plane",
			"rotation":[
				1,
				0,
				0,
				0
			],
			"scale":[
				-0.1651950180530548,
				-0.6560786962509155,
				-0.6560786962509155
			],
			"translation":[
				-0.043884582817554474,
				4.05286979675293,
				0.0168926902115345
			]
		},
		{
			"mesh":2,
			"name":"Sphere",
			"scale":[
				-0.05029508098959923,
				-0.05029508098959923,
				-0.05029508098959923
			],
			"translation":[
				0.2602994441986084,
				4.581068992614746,
				-0.05312453210353851
			]
		},
		{
			"mesh":3,
			"name":"Sphere.001",
			"scale":[
				-0.02557632140815258,
				-0.02557632140815258,
				-0.02557632140815258
			],
			"translation":[
				0.22936950623989105,
				4.439323902130127,
				0.34664109349250793
			]
		}
	],
	"materials":[
		{
			"doubleSided":true,
			"name":"Glass",
			"pbrMetallicRoughness":{}
		},
		{
			"doubleSided":true,
			"name":"Material",
			"pbrMetallicRoughness":{
				"baseColorFactor":[
					0.004318593069911003,
					0.03942617401480675,
					0.8021063208580017,
					1
				],
				"metallicFactor":0,
				"roughnessFactor":0.5
			}
		},
		{
			"doubleSided":true,
			"name":"Material.001",
			"pbrMetallicRoughness":{
				"baseColorFactor":[
					0.8009468913078308,
					0.057515569031238556,
					0.031268756836652756,
					1
				],
				"metallicFactor":0,
				"roughnessFactor":0.5
			}
		},
		{
			"doubleSided":true,
			"name":"Material.002",
			"pbrMetallicRoughness":{
				"baseColorFactor":[
					0.234304279088974,
					0.8007350564002991,
					0.07090127468109131,
					1
				],
				"metallicFactor":0,
				"roughnessFactor":0.5
			}
		}
	],
	"meshes":[
		{
			"name":"Sphere",
			"primitives":[
				{
					"attributes":{
						"POSITION":0,
						"NORMAL":1,
						"TEXCOORD_0":2
					},
					"indices":3,
					"material":0
				}
			]
		},
		{
			"name":"Plane",
			"primitives":[
				{
					"attributes":{
						"POSITION":4,
						"NORMAL":5,
						"TEXCOORD_0":6
					},
					"indices":7,
					"material":1
				}
			]
		},
		{
			"name":"Sphere.001",
			"primitives":[
				{
					"attributes":{
						"POSITION":8,
						"NORMAL":9,
						"TEXCOORD_0":10
					},
					"indices":11,
					"material":2
				}
			]
		},
		{
			"name":"Sphere.002",
			"primitives":[
				{
					"attributes":{
						"POSITION":12,
						"NORMAL":13,
						"TEXCOORD_0":14
					},
					"indices":11,
					"material":3
				}
			]
		}
	],
	"accessors":[
		{
			"bufferView":0,
			"componentType":5126,
			"count":559,
			"max":[
				0.9999997019767761,
				1,
				0.9999993443489075
			],
			"min":[
				-0.9999990463256836,
				-1,
				-1
			],
			"type":"VEC3"
		},
		{
			"bufferView":1,
			"componentType":5126,
			"count":559,
			"type":"VEC3"
		},
		{
			"bufferView":2,
			"componentType":5126,
			"count":559,
			"type":"VEC2"
		},
		{
			"bufferView":3,
			"componentType":5123,
			"count":2880,
			"type":"SCALAR"
		},
		{
			"bufferView":4,
			"componentType":5126,
			"count":2304,
			"max":[
				1.2555999755859375,
				0.2751653790473938,
				1.0473393201828003
			],
			"min":[
				-1.2556798458099365,
				-0.28799867630004883,
				-1.025109887123108
			],
			"type":"VEC3"
		},
		{
			"bufferView":5,
			"componentType":5126,
			"count":2304,
			"type":"VEC3"
		},
		{
			"bufferView":6,
			"componentType":5126,
			"count":2304,
			"type":"VEC2"
		},
		{
			"bufferView":7,
			"componentType":5123,
			"count":3456,
			"type":"SCALAR"
		},
		{
			"bufferView":8,
			"componentType":5126,
			"count":1984,
			"max":[
				0.9999997019767761,
				1,
				0.9999993443489075
			],
			"min":[
				-0.9999990463256836,
				-1,
				-1
			],
			"type":"VEC3"
		},
		{
			"bufferView":9,
			"componentType":5126,
			"count":1984,
			"type":"VEC3"
		},
		{
			"bufferView":10,
			"componentType":5126,
			"count":1984,
			"type":"VEC2"
		},
		{
			"bufferView":11,
			"componentType":5123,
			"count":2880,
			"type":"SCALAR"
		},
		{
			"bufferView":12,
			"componentType":5126,
			"count":1984,
			"max":[
				0.9999997019767761,
				1,
				0.9999993443489075
			],
			"min":[
				-0.9999990463256836,
				-1,
				-1
			],
			"type":"VEC3"
		},
		{
			"bufferView":13,
			"componentType":5126,
			"count":1984,
			"type":"VEC3"
		},
		{
			"bufferView":14,
			"componentType":5126,
			"count":1984,
			"type":"VEC2"
		}
	],
	"bufferViews":[
		{
			"buffer":0,
			"byteLength":6708,
			"byteOffset":0,
			"target":34962
		},
		{
			"buffer":0,
			"byteLength":6708,
			"byteOffset":6708,
			"target":34962
		},
		{
			"buffer":0,
			"byteLength":4472,
			"byteOffset":13416,
			"target":34962
		},
		{
			"buffer":0,
			"byteLength":5760,
			"byteOffset":17888,
			"target":34963
		},
		{
			"buffer":0,
			"byteLength":27648,
			"byteOffset":23648,
			"target":34962
		},
		{
			"buffer":0,
			"byteLength":27648,
			"byteOffset":51296,
			"target":34962
		},
		{
			"buffer":0,
			"byteLength":18432,
			"byteOffset":78944,
			"target":34962
		},
		{
			"buffer":0,
			"byteLength":6912,
			"byteOffset":97376,
			"target":34963
		},
		{
			"buffer":0,
			"byteLength":23808,
			"byteOffset":104288,
			"target":34962
		},
		{
			"buffer":0,
			"byteLength":23808,
			"byteOffset":128096,
			"target":34962
		},
		{
			"buffer":0,
			"byteLength":15872,
			"byteOffset":151904,
			"target":34962
		},
		{
			"buffer":0,
			"byteLength":5760,
			"byteOffset":167776,
			"target":34963
		},
		{
			"buffer":0,
			"byteLength":23808,
			"byteOffset":173536,
			"target":34962
		},
		{
			"buffer":0,
			"byteLength":23808,
			"byteOffset":197344,
			"target":34962
		},
		{
			"buffer":0,
			"byteLength":15872,
			"byteOffset":221152,
			"target":34962
		}
	],
	"buffers":[
		{
			"byteLength":237024,
			"uri":"MarbleSpirit_Normal.bin"
		}
	]
}
