{
	"asset":{
		"generator":"Khronos glTF Blender I/O v4.1.63",
		"version":"2.0"
	},
	"scene":0,
	"scenes":[
		{
			"name":"Scene",
			"nodes":[
				0,
				1
			]
		}
	],
	"nodes":[
		{
			"mesh":0,
			"name":"Cylinder"
		},
		{
			"mesh":1,
			"name":"Cylinder.001",
			"translation":[
				0,
				10.170000076293945,
				0
			]
		}
	],
	"materials":[
		{
			"doubleSided":true,
			"name":"Material.001",
			"pbrMetallicRoughness":{
				"baseColorFactor":[
					0.3277762532234192,
					0.1559266448020935,
					0.04970661923289299,
					1
				],
				"metallicFactor":0,
				"roughnessFactor":0.5
			}
		},
		{
			"doubleSided":true,
			"name":"Material.002",
			"pbrMetallicRoughness":{
				"baseColorFactor":[
					0.3277762532234192,
					0.1559266448020935,
					0.04970661923289299,
					1
				],
				"metallicFactor":0,
				"roughnessFactor":0.5
			}
		}
	],
	"meshes":[
		{
			"name":"Cylinder",
			"primitives":[
				{
					"attributes":{
						"POSITION":0,
						"NORMAL":1,
						"TEXCOORD_0":2
					},
					"indices":3,
					"material":0
				}
			]
		},
		{
			"name":"Cylinder.001",
			"primitives":[
				{
					"attributes":{
						"POSITION":4,
						"NORMAL":5,
						"TEXCOORD_0":6
					},
					"indices":7,
					"material":1
				}
			]
		}
	],
	"accessors":[
		{
			"bufferView":0,
			"componentType":5126,
			"count":1112,
			"max":[
				1.0923879146575928,
				9.17162036895752,
				1.0923879146575928
			],
			"min":[
				-1.0923879146575928,
				0.00859212875366211,
				-1.0923879146575928
			],
			"type":"VEC3"
		},
		{
			"bufferView":1,
			"componentType":5126,
			"count":1112,
			"type":"VEC3"
		},
		{
			"bufferView":2,
			"componentType":5126,
			"count":1112,
			"type":"VEC2"
		},
		{
			"bufferView":3,
			"componentType":5123,
			"count":2388,
			"type":"SCALAR"
		},
		{
			"bufferView":4,
			"componentType":5126,
			"count":272,
			"max":[
				1.7100729942321777,
				1.0000008344650269,
				1.7100729942321777
			],
			"min":[
				-1.7100729942321777,
				-1,
				-1.7100729942321777
			],
			"type":"VEC3"
		},
		{
			"bufferView":5,
			"componentType":5126,
			"count":272,
			"type":"VEC3"
		},
		{
			"bufferView":6,
			"componentType":5126,
			"count":272,
			"type":"VEC2"
		},
		{
			"bufferView":7,
			"componentType":5123,
			"count":516,
			"type":"SCALAR"
		}
	],
	"bufferViews":[
		{
			"buffer":0,
			"byteLength":13344,
			"byteOffset":0,
			"target":34962
		},
		{
			"buffer":0,
			"byteLength":13344,
			"byteOffset":13344,
			"target":34962
		},
		{
			"buffer":0,
			"byteLength":8896,
			"byteOffset":26688,
			"target":34962
		},
		{
			"buffer":0,
			"byteLength":4776,
			"byteOffset":35584,
			"target":34963
		},
		{
			"buffer":0,
			"byteLength":3264,
			"byteOffset":40360,
			"target":34962
		},
		{
			"buffer":0,
			"byteLength":3264,
			"byteOffset":43624,
			"target":34962
		},
		{
			"buffer":0,
			"byteLength":2176,
			"byteOffset":46888,
			"target":34962
		},
		{
			"buffer":0,
			"byteLength":1032,
			"byteOffset":49064,
			"target":34963
		}
	],
	"buffers":[
		{
			"byteLength":50096,
			"uri":"Pillar_Wood.bin"
		}
	]
}
