{
	"asset":{
		"generator":"Khronos glTF Blender I/O v4.1.63",
		"version":"2.0"
	},
	"scene":0,
	"scenes":[
		{
			"name":"Scene",
			"nodes":[
				0,
				1
			]
		}
	],
	"nodes":[
		{
			"mesh":0,
			"name":"body"
		},
		{
			"mesh":1,
			"name":"top",
			"translation":[
				0,
				10.170000076293945,
				0
			]
		}
	],
	"materials":[
		{
			"doubleSided":true,
			"name":"Burnt Material",
			"pbrMetallicRoughness":{
				"metallicFactor":0,
				"roughnessFactor":0.5
			}
		}
	],
	"meshes":[
		{
			"name":"Cylinder",
			"primitives":[
				{
					"attributes":{
						"POSITION":0,
						"NORMAL":1,
						"TEXCOORD_0":2
					},
					"indices":3,
					"material":0
				}
			]
		},
		{
			"name":"Cylinder.001",
			"primitives":[
				{
					"attributes":{
						"POSITION":4,
						"NORMAL":5,
						"TEXCOORD_0":6
					},
					"indices":7,
					"material":0
				}
			]
		}
	],
	"accessors":[
		{
			"bufferView":0,
			"componentType":5126,
			"count":1587,
			"max":[
				1.0923879146575928,
				9.17162036895752,
				1.0923879146575928
			],
			"min":[
				-1.0923879146575928,
				0.00859212875366211,
				-1.0923879146575928
			],
			"type":"VEC3"
		},
		{
			"bufferView":1,
			"componentType":5126,
			"count":1587,
			"type":"VEC3"
		},
		{
			"bufferView":2,
			"componentType":5126,
			"count":1587,
			"type":"VEC2"
		},
		{
			"bufferView":3,
			"componentType":5123,
			"count":3279,
			"type":"SCALAR"
		},
		{
			"bufferView":4,
			"componentType":5126,
			"count":452,
			"max":[
				1.7100729942321777,
				1.0082377195358276,
				1.7100729942321777
			],
			"min":[
				-1.7100729942321777,
				-1,
				-1.7100729942321777
			],
			"type":"VEC3"
		},
		{
			"bufferView":5,
			"componentType":5126,
			"count":452,
			"type":"VEC3"
		},
		{
			"bufferView":6,
			"componentType":5126,
			"count":452,
			"type":"VEC2"
		},
		{
			"bufferView":7,
			"componentType":5123,
			"count":912,
			"type":"SCALAR"
		}
	],
	"bufferViews":[
		{
			"buffer":0,
			"byteLength":19044,
			"byteOffset":0,
			"target":34962
		},
		{
			"buffer":0,
			"byteLength":19044,
			"byteOffset":19044,
			"target":34962
		},
		{
			"buffer":0,
			"byteLength":12696,
			"byteOffset":38088,
			"target":34962
		},
		{
			"buffer":0,
			"byteLength":6558,
			"byteOffset":50784,
			"target":34963
		},
		{
			"buffer":0,
			"byteLength":5424,
			"byteOffset":57344,
			"target":34962
		},
		{
			"buffer":0,
			"byteLength":5424,
			"byteOffset":62768,
			"target":34962
		},
		{
			"buffer":0,
			"byteLength":3616,
			"byteOffset":68192,
			"target":34962
		},
		{
			"buffer":0,
			"byteLength":1824,
			"byteOffset":71808,
			"target":34963
		}
	],
	"buffers":[
		{
			"byteLength":73632,
			"uri":"Pillar_WoodCursed.bin"
		}
	]
}
