{
	"asset":{
		"generator":"Khronos glTF Blender I/O v4.1.63",
		"version":"2.0"
	},
	"scene":0,
	"scenes":[
		{
			"name":"Scene",
			"nodes":[
				0,
				1,
				2
			]
		}
	],
	"nodes":[
		{
			"mesh":0,
			"name":"Plane",
			"scale":[
				1.711796522140503,
				1.711796522140503,
				1.711796522140503
			],
			"translation":[
				0,
				3.0329787731170654,
				0
			]
		},
		{
			"mesh":1,
			"name":"Plane.001",
			"scale":[
				3.7909512519836426,
				3.7909512519836426,
				3.7909512519836426
			]
		},
		{
			"mesh":2,
			"name":"Sphere",
			"scale":[
				1.0249438285827637,
				1.0249438285827637,
				1.0249438285827637
			],
			"translation":[
				0,
				0.28448957204818726,
				0
			]
		}
	],
	"materials":[
		{
			"doubleSided":true,
			"name":"Material.001",
			"pbrMetallicRoughness":{
				"baseColorFactor":[
					0.3484289050102234,
					0.04102383181452751,
					0.02250758372247219,
					1
				],
				"metallicFactor":0
			}
		}
	],
	"meshes":[
		{
			"name":"Plane",
			"primitives":[
				{
					"attributes":{
						"POSITION":0,
						"NORMAL":1,
						"TEXCOORD_0":2
					},
					"indices":3,
					"material":0
				}
			]
		},
		{
			"name":"Plane.003",
			"primitives":[
				{
					"attributes":{
						"POSITION":4,
						"NORMAL":5,
						"TEXCOORD_0":6
					},
					"indices":7
				}
			]
		},
		{
			"name":"Sphere.003",
			"primitives":[
				{
					"attributes":{
						"POSITION":8,
						"NORMAL":9,
						"TEXCOORD_0":10
					},
					"indices":11
				}
			]
		}
	],
	"accessors":[
		{
			"bufferView":0,
			"componentType":5126,
			"count":1024,
			"max":[
				1.398026466369629,
				3.457069396972656e-05,
				1.398026466369629
			],
			"min":[
				-1.398026466369629,
				3.457069396972656e-05,
				-1.398026466369629
			],
			"type":"VEC3"
		},
		{
			"bufferView":1,
			"componentType":5126,
			"count":1024,
			"type":"VEC3"
		},
		{
			"bufferView":2,
			"componentType":5126,
			"count":1024,
			"type":"VEC2"
		},
		{
			"bufferView":3,
			"componentType":5123,
			"count":5766,
			"type":"SCALAR"
		},
		{
			"bufferView":4,
			"componentType":5126,
			"count":4,
			"max":[
				1,
				0,
				1
			],
			"min":[
				-1,
				0,
				-1
			],
			"type":"VEC3"
		},
		{
			"bufferView":5,
			"componentType":5126,
			"count":4,
			"type":"VEC3"
		},
		{
			"bufferView":6,
			"componentType":5126,
			"count":4,
			"type":"VEC2"
		},
		{
			"bufferView":7,
			"componentType":5123,
			"count":6,
			"type":"SCALAR"
		},
		{
			"bufferView":8,
			"componentType":5126,
			"count":1984,
			"max":[
				0.9999997019767761,
				1,
				0.9999993443489075
			],
			"min":[
				-0.9999990463256836,
				-1,
				-1
			],
			"type":"VEC3"
		},
		{
			"bufferView":9,
			"componentType":5126,
			"count":1984,
			"type":"VEC3"
		},
		{
			"bufferView":10,
			"componentType":5126,
			"count":1984,
			"type":"VEC2"
		},
		{
			"bufferView":11,
			"componentType":5123,
			"count":2880,
			"type":"SCALAR"
		}
	],
	"bufferViews":[
		{
			"buffer":0,
			"byteLength":12288,
			"byteOffset":0,
			"target":34962
		},
		{
			"buffer":0,
			"byteLength":12288,
			"byteOffset":12288,
			"target":34962
		},
		{
			"buffer":0,
			"byteLength":8192,
			"byteOffset":24576,
			"target":34962
		},
		{
			"buffer":0,
			"byteLength":11532,
			"byteOffset":32768,
			"target":34963
		},
		{
			"buffer":0,
			"byteLength":48,
			"byteOffset":44300,
			"target":34962
		},
		{
			"buffer":0,
			"byteLength":48,
			"byteOffset":44348,
			"target":34962
		},
		{
			"buffer":0,
			"byteLength":32,
			"byteOffset":44396,
			"target":34962
		},
		{
			"buffer":0,
			"byteLength":12,
			"byteOffset":44428,
			"target":34963
		},
		{
			"buffer":0,
			"byteLength":23808,
			"byteOffset":44440,
			"target":34962
		},
		{
			"buffer":0,
			"byteLength":23808,
			"byteOffset":68248,
			"target":34962
		},
		{
			"buffer":0,
			"byteLength":15872,
			"byteOffset":92056,
			"target":34962
		},
		{
			"buffer":0,
			"byteLength":5760,
			"byteOffset":107928,
			"target":34963
		}
	],
	"buffers":[
		{
			"byteLength":113688,
			"uri":"Rag_Oiled.bin"
		}
	]
}
