{
	"asset":{
		"generator":"Khronos glTF Blender I/O v4.1.63",
		"version":"2.0"
	},
	"scene":0,
	"scenes":[
		{
			"name":"Scene",
			"nodes":[
				0
			]
		}
	],
	"nodes":[
		{
			"mesh":0,
			"name":"Cylinder",
			"scale":[
				0.16452012956142426,
				0.3291509747505188,
				0.16452012956142426
			],
			"translation":[
				0.00023986960877664387,
				2.006101608276367,
				-0.0002923760039266199
			]
		}
	],
	"materials":[
		{
			"doubleSided":true,
			"name":"Material",
			"pbrMetallicRoughness":{
				"baseColorFactor":[
					0.800000011920929,
					0.800000011920929,
					0.800000011920929,
					1
				],
				"metallicFactor":0,
				"roughnessFactor":0.5
			}
		},
		{
			"doubleSided":true,
			"name":"Material.001",
			"pbrMetallicRoughness":{
				"baseColorFactor":[
					0.03434562683105469,
					0.010329368524253368,
					0.004391127731651068,
					1
				],
				"metallicFactor":0,
				"roughnessFactor":0.5
			}
		},
		{
			"doubleSided":true,
			"name":"Material.002",
			"pbrMetallicRoughness":{
				"baseColorFactor":[
					0.5272036790847778,
					0.5270920991897583,
					0.5270770192146301,
					1
				],
				"metallicFactor":0.7674418687820435,
				"roughnessFactor":0.5
			}
		},
		{
			"doubleSided":true,
			"name":"Material.003",
			"pbrMetallicRoughness":{
				"baseColorFactor":[
					1,
					0.6795129179954529,
					0,
					1
				],
				"metallicFactor":0.7093023061752319,
				"roughnessFactor":0.5
			}
		},
		{
			"doubleSided":true,
			"name":"Material.004",
			"pbrMetallicRoughness":{
				"baseColorFactor":[
					0.8964201807975769,
					0.7912634611129761,
					0.7156420350074768,
					1
				],
				"metallicFactor":0,
				"roughnessFactor":0.5
			}
		},
		{
			"alphaMode":"BLEND",
			"doubleSided":true,
			"name":"Material.005",
			"pbrMetallicRoughness":{}
		}
	],
	"meshes":[
		{
			"name":"Cylinder",
			"primitives":[
				{
					"attributes":{
						"POSITION":0,
						"NORMAL":1,
						"TEXCOORD_0":2
					},
					"indices":3,
					"material":0
				},
				{
					"attributes":{
						"POSITION":4,
						"NORMAL":5,
						"TEXCOORD_0":6
					},
					"indices":7,
					"material":1
				},
				{
					"attributes":{
						"POSITION":8,
						"NORMAL":9,
						"TEXCOORD_0":10
					},
					"indices":11,
					"material":2
				},
				{
					"attributes":{
						"POSITION":12,
						"NORMAL":13,
						"TEXCOORD_0":14
					},
					"indices":15,
					"material":3
				},
				{
					"attributes":{
						"POSITION":16,
						"NORMAL":17,
						"TEXCOORD_0":18
					},
					"indices":19,
					"material":4
				},
				{
					"attributes":{
						"POSITION":20,
						"NORMAL":21,
						"TEXCOORD_0":22
					},
					"indices":23,
					"material":5
				}
			]
		}
	],
	"accessors":[
		{
			"bufferView":0,
			"componentType":5126,
			"count":108,
			"max":[
				0.8300116062164307,
				4.6479997634887695,
				0.6979301571846008
			],
			"min":[
				-0.6976109743118286,
				-6.0165886878967285,
				-0.9221023321151733
			],
			"type":"VEC3"
		},
		{
			"bufferView":1,
			"componentType":5126,
			"count":108,
			"type":"VEC3"
		},
		{
			"bufferView":2,
			"componentType":5126,
			"count":108,
			"type":"VEC2"
		},
		{
			"bufferView":3,
			"componentType":5123,
			"count":408,
			"type":"SCALAR"
		},
		{
			"bufferView":4,
			"componentType":5126,
			"count":853,
			"max":[
				0.9985420107841492,
				3.169145345687866,
				1.001777172088623
			],
			"min":[
				-1.0014580488204956,
				-5.729604721069336,
				-0.998222827911377
			],
			"type":"VEC3"
		},
		{
			"bufferView":5,
			"componentType":5126,
			"count":853,
			"type":"VEC3"
		},
		{
			"bufferView":6,
			"componentType":5126,
			"count":853,
			"type":"VEC2"
		},
		{
			"bufferView":7,
			"componentType":5123,
			"count":3918,
			"type":"SCALAR"
		},
		{
			"bufferView":8,
			"componentType":5126,
			"count":192,
			"max":[
				0.7216082811355591,
				3.263787031173706,
				0.724843442440033
			],
			"min":[
				-0.7245242595672607,
				-2.5844950675964355,
				-0.7212890982627869
			],
			"type":"VEC3"
		},
		{
			"bufferView":9,
			"componentType":5126,
			"count":192,
			"type":"VEC3"
		},
		{
			"bufferView":10,
			"componentType":5126,
			"count":192,
			"type":"VEC2"
		},
		{
			"bufferView":11,
			"componentType":5123,
			"count":480,
			"type":"SCALAR"
		},
		{
			"bufferView":12,
			"componentType":5126,
			"count":490,
			"max":[
				0.8458507061004639,
				2.6240813732147217,
				0.8490860462188721
			],
			"min":[
				-0.8487670421600342,
				-6.0165886878967285,
				-0.845531702041626
			],
			"type":"VEC3"
		},
		{
			"bufferView":13,
			"componentType":5126,
			"count":490,
			"type":"VEC3"
		},
		{
			"bufferView":14,
			"componentType":5126,
			"count":490,
			"type":"VEC2"
		},
		{
			"bufferView":15,
			"componentType":5123,
			"count":2112,
			"type":"SCALAR"
		},
		{
			"bufferView":16,
			"componentType":5126,
			"count":64,
			"max":[
				0.2224861979484558,
				4.647998809814453,
				0.22572241723537445
			],
			"min":[
				-0.22540441155433655,
				3.169145345687866,
				-0.22216813266277313
			],
			"type":"VEC3"
		},
		{
			"bufferView":17,
			"componentType":5126,
			"count":64,
			"type":"VEC3"
		},
		{
			"bufferView":18,
			"componentType":5126,
			"count":64,
			"type":"VEC2"
		},
		{
			"bufferView":19,
			"componentType":5123,
			"count":192,
			"type":"SCALAR"
		},
		{
			"bufferView":20,
			"componentType":5126,
			"count":96,
			"max":[
				0.13642214238643646,
				4.793272018432617,
				0.13966012001037598
			],
			"min":[
				-0.13934387266635895,
				4.6479997634887695,
				-0.13610583543777466
			],
			"type":"VEC3"
		},
		{
			"bufferView":21,
			"componentType":5126,
			"count":96,
			"type":"VEC3"
		},
		{
			"bufferView":22,
			"componentType":5126,
			"count":96,
			"type":"VEC2"
		},
		{
			"bufferView":23,
			"componentType":5123,
			"count":474,
			"type":"SCALAR"
		}
	],
	"bufferViews":[
		{
			"buffer":0,
			"byteLength":1296,
			"byteOffset":0,
			"target":34962
		},
		{
			"buffer":0,
			"byteLength":1296,
			"byteOffset":1296,
			"target":34962
		},
		{
			"buffer":0,
			"byteLength":864,
			"byteOffset":2592,
			"target":34962
		},
		{
			"buffer":0,
			"byteLength":816,
			"byteOffset":3456,
			"target":34963
		},
		{
			"buffer":0,
			"byteLength":10236,
			"byteOffset":4272,
			"target":34962
		},
		{
			"buffer":0,
			"byteLength":10236,
			"byteOffset":14508,
			"target":34962
		},
		{
			"buffer":0,
			"byteLength":6824,
			"byteOffset":24744,
			"target":34962
		},
		{
			"buffer":0,
			"byteLength":7836,
			"byteOffset":31568,
			"target":34963
		},
		{
			"buffer":0,
			"byteLength":2304,
			"byteOffset":39404,
			"target":34962
		},
		{
			"buffer":0,
			"byteLength":2304,
			"byteOffset":41708,
			"target":34962
		},
		{
			"buffer":0,
			"byteLength":1536,
			"byteOffset":44012,
			"target":34962
		},
		{
			"buffer":0,
			"byteLength":960,
			"byteOffset":45548,
			"target":34963
		},
		{
			"buffer":0,
			"byteLength":5880,
			"byteOffset":46508,
			"target":34962
		},
		{
			"buffer":0,
			"byteLength":5880,
			"byteOffset":52388,
			"target":34962
		},
		{
			"buffer":0,
			"byteLength":3920,
			"byteOffset":58268,
			"target":34962
		},
		{
			"buffer":0,
			"byteLength":4224,
			"byteOffset":62188,
			"target":34963
		},
		{
			"buffer":0,
			"byteLength":768,
			"byteOffset":66412,
			"target":34962
		},
		{
			"buffer":0,
			"byteLength":768,
			"byteOffset":67180,
			"target":34962
		},
		{
			"buffer":0,
			"byteLength":512,
			"byteOffset":67948,
			"target":34962
		},
		{
			"buffer":0,
			"byteLength":384,
			"byteOffset":68460,
			"target":34963
		},
		{
			"buffer":0,
			"byteLength":1152,
			"byteOffset":68844,
			"target":34962
		},
		{
			"buffer":0,
			"byteLength":1152,
			"byteOffset":69996,
			"target":34962
		},
		{
			"buffer":0,
			"byteLength":768,
			"byteOffset":71148,
			"target":34962
		},
		{
			"buffer":0,
			"byteLength":948,
			"byteOffset":71916,
			"target":34963
		}
	],
	"buffers":[
		{
			"byteLength":72864,
			"uri":"RodTorch_Silver.bin"
		}
	]
}
