{
	"asset":{
		"generator":"Khronos glTF Blender I/O v4.1.63",
		"version":"2.0"
	},
	"extensionsUsed":[
		"KHR_materials_specular",
		"KHR_materials_ior",
		"KHR_texture_transform"
	],
	"extensionsRequired":[
		"KHR_texture_transform"
	],
	"scene":0,
	"scenes":[
		{
			"name":"Scene",
			"nodes":[
				0,
				1,
				2
			]
		}
	],
	"nodes":[
		{
			"mesh":0,
			"name":"Main Body"
		},
		{
			"mesh":1,
			"name":"Steps",
			"scale":[
				0.07786756753921509,
				0.030053630471229553,
				0.07786756753921509
			]
		},
		{
			"mesh":2,
			"name":"Bolts/Metal"
		}
	],
	"materials":[
		{
			"doubleSided":true,
			"extensions":{
				"KHR_materials_specular":{
					"specularFactor":0.5272727012634277
				},
				"KHR_materials_ior":{
					"ior":1.4500000476837158
				}
			},
			"name":"Stylised wood",
			"normalTexture":{
				"extensions":{
					"KHR_texture_transform":{
						"offset":[
							0,
							0.5
						],
						"scale":[
							0.5,
							0.5
						]
					}
				},
				"index":0,
				"texCoord":1
			},
			"pbrMetallicRoughness":{
				"baseColorTexture":{
					"extensions":{
						"KHR_texture_transform":{
							"offset":[
								0,
								0.5
							],
							"scale":[
								0.5,
								0.5
							]
						}
					},
					"index":1,
					"texCoord":1
				},
				"metallicFactor":0,
				"metallicRoughnessTexture":{
					"extensions":{
						"KHR_texture_transform":{
							"offset":[
								0,
								0.5
							],
							"scale":[
								0.5,
								0.5
							]
						}
					},
					"index":2,
					"texCoord":1
				}
			}
		},
		{
			"doubleSided":true,
			"name":"Metal",
			"pbrMetallicRoughness":{
				"baseColorFactor":[
					0.024199552834033966,
					0.024199552834033966,
					0.024199552834033966,
					1
				],
				"metallicFactor":0.4128440320491791,
				"roughnessFactor":0.5
			}
		}
	],
	"meshes":[
		{
			"name":"Cube.001",
			"primitives":[
				{
					"attributes":{
						"POSITION":0,
						"NORMAL":1,
						"TEXCOORD_0":2,
						"TEXCOORD_1":3
					},
					"indices":4,
					"material":0
				}
			]
		},
		{
			"name":"Cube.005",
			"primitives":[
				{
					"attributes":{
						"POSITION":5,
						"NORMAL":6,
						"TEXCOORD_0":7,
						"TEXCOORD_1":8
					},
					"indices":9,
					"material":0
				}
			]
		},
		{
			"name":"Sphere",
			"primitives":[
				{
					"attributes":{
						"POSITION":10,
						"NORMAL":11,
						"TEXCOORD_0":12
					},
					"indices":13,
					"material":1
				}
			]
		}
	],
	"textures":[
		{
			"sampler":0,
			"source":0
		},
		{
			"sampler":0,
			"source":1
		},
		{
			"sampler":0,
			"source":2
		}
	],
	"images":[
		{
			"mimeType":"image/jpeg",
			"name":"wood_material_normal",
			"uri":"wood_material_normal.jpg"
		},
		{
			"mimeType":"image/jpeg",
			"name":"wood_material_basecolor",
			"uri":"wood_material_basecolor.jpg"
		},
		{
			"mimeType":"image/png",
			"name":"wood_material_roughness",
			"uri":"wood_material_roughness.png"
		}
	],
	"accessors":[
		{
			"bufferView":0,
			"componentType":5126,
			"count":88,
			"max":[
				0.9297869801521301,
				2,
				0.5917654037475586
			],
			"min":[
				-0.9297869801521301,
				0,
				-0.5917654037475586
			],
			"type":"VEC3"
		},
		{
			"bufferView":1,
			"componentType":5126,
			"count":88,
			"type":"VEC3"
		},
		{
			"bufferView":2,
			"componentType":5126,
			"count":88,
			"type":"VEC2"
		},
		{
			"bufferView":3,
			"componentType":5126,
			"count":88,
			"type":"VEC2"
		},
		{
			"bufferView":4,
			"componentType":5123,
			"count":144,
			"type":"SCALAR"
		},
		{
			"bufferView":5,
			"componentType":5126,
			"count":576,
			"max":[
				9.348028182983398,
				69.15998077392578,
				8.256949424743652
			],
			"min":[
				-9.348028182983398,
				15.863543510437012,
				-8.256951332092285
			],
			"type":"VEC3"
		},
		{
			"bufferView":6,
			"componentType":5126,
			"count":576,
			"type":"VEC3"
		},
		{
			"bufferView":7,
			"componentType":5126,
			"count":576,
			"type":"VEC2"
		},
		{
			"bufferView":8,
			"componentType":5126,
			"count":576,
			"type":"VEC2"
		},
		{
			"bufferView":9,
			"componentType":5123,
			"count":912,
			"type":"SCALAR"
		},
		{
			"bufferView":10,
			"componentType":5126,
			"count":5096,
			"max":[
				0.6637125611305237,
				1.9977787733078003,
				0.6780180335044861
			],
			"min":[
				-0.6637125611305237,
				0.4820041358470917,
				-0.6780180335044861
			],
			"type":"VEC3"
		},
		{
			"bufferView":11,
			"componentType":5126,
			"count":5096,
			"type":"VEC3"
		},
		{
			"bufferView":12,
			"componentType":5126,
			"count":5096,
			"type":"VEC2"
		},
		{
			"bufferView":13,
			"componentType":5123,
			"count":7224,
			"type":"SCALAR"
		}
	],
	"bufferViews":[
		{
			"buffer":0,
			"byteLength":1056,
			"byteOffset":0,
			"target":34962
		},
		{
			"buffer":0,
			"byteLength":1056,
			"byteOffset":1056,
			"target":34962
		},
		{
			"buffer":0,
			"byteLength":704,
			"byteOffset":2112,
			"target":34962
		},
		{
			"buffer":0,
			"byteLength":704,
			"byteOffset":2816,
			"target":34962
		},
		{
			"buffer":0,
			"byteLength":288,
			"byteOffset":3520,
			"target":34963
		},
		{
			"buffer":0,
			"byteLength":6912,
			"byteOffset":3808,
			"target":34962
		},
		{
			"buffer":0,
			"byteLength":6912,
			"byteOffset":10720,
			"target":34962
		},
		{
			"buffer":0,
			"byteLength":4608,
			"byteOffset":17632,
			"target":34962
		},
		{
			"buffer":0,
			"byteLength":4608,
			"byteOffset":22240,
			"target":34962
		},
		{
			"buffer":0,
			"byteLength":1824,
			"byteOffset":26848,
			"target":34963
		},
		{
			"buffer":0,
			"byteLength":61152,
			"byteOffset":28672,
			"target":34962
		},
		{
			"buffer":0,
			"byteLength":61152,
			"byteOffset":89824,
			"target":34962
		},
		{
			"buffer":0,
			"byteLength":40768,
			"byteOffset":150976,
			"target":34962
		},
		{
			"buffer":0,
			"byteLength":14448,
			"byteOffset":191744,
			"target":34963
		}
	],
	"samplers":[
		{
			"magFilter":9729,
			"minFilter":9987
		}
	],
	"buffers":[
		{
			"byteLength":206192,
			"uri":"Stepladder.bin"
		}
	]
}
