{
	"asset":{
		"generator":"Khronos glTF Blender I/O v4.1.63",
		"version":"2.0"
	},
	"extensionsUsed":[
		"KHR_texture_transform"
	],
	"extensionsRequired":[
		"KHR_texture_transform"
	],
	"scene":0,
	"scenes":[
		{
			"name":"Scene",
			"nodes":[
				1
			]
		}
	],
	"nodes":[
		{
			"mesh":0,
			"name":"Table.001",
			"scale":[
				3.720090866088867,
				3.720090866088867,
				3.720090866088867
			]
		},
		{
			"children":[
				0
			],
			"name":"Table",
			"scale":[
				1.0803773403167725,
				1.0803773403167725,
				1.0803773403167725
			]
		}
	],
	"materials":[
		{
			"doubleSided":true,
			"name":"Metal",
			"normalTexture":{
				"index":0,
				"texCoord":1
			},
			"pbrMetallicRoughness":{
				"baseColorFactor":[
					0.011447387747466564,
					0.011447387747466564,
					0.011447387747466564,
					1
				],
				"metallicFactor":0,
				"metallicRoughnessTexture":{
					"index":1,
					"texCoord":1
				}
			}
		},
		{
			"doubleSided":true,
			"name":"Wood.001",
			"normalTexture":{
				"extensions":{
					"KHR_texture_transform":{
						"offset":[
							-0.999999999999999,
							1.00000004371139
						],
						"rotation":1.5707963705062866
					}
				},
				"index":2,
				"texCoord":1
			},
			"pbrMetallicRoughness":{
				"baseColorTexture":{
					"extensions":{
						"KHR_texture_transform":{
							"offset":[
								-0.999999999999999,
								1.00000004371139
							],
							"rotation":1.5707963705062866
						}
					},
					"index":3,
					"texCoord":1
				},
				"metallicFactor":0,
				"metallicRoughnessTexture":{
					"extensions":{
						"KHR_texture_transform":{
							"offset":[
								-0.999999999999999,
								1.00000004371139
							],
							"rotation":1.5707963705062866
						}
					},
					"index":4,
					"texCoord":1
				}
			}
		}
	],
	"meshes":[
		{
			"name":"Cube.005",
			"primitives":[
				{
					"attributes":{
						"POSITION":0,
						"NORMAL":1,
						"TEXCOORD_0":2,
						"TEXCOORD_1":3
					},
					"indices":4,
					"material":0
				},
				{
					"attributes":{
						"POSITION":5,
						"NORMAL":6,
						"TEXCOORD_0":7,
						"TEXCOORD_1":8
					},
					"indices":9,
					"material":1
				}
			]
		}
	],
	"textures":[
		{
			"sampler":0,
			"source":0
		},
		{
			"sampler":0,
			"source":1
		},
		{
			"sampler":0,
			"source":2
		},
		{
			"sampler":0,
			"source":3
		},
		{
			"sampler":0,
			"source":4
		}
	],
	"images":[
		{
			"mimeType":"image/jpeg",
			"name":"MetalScratched007_NRM_3K",
			"uri":"MetalScratched007_NRM_3K.jpg"
		},
		{
			"mimeType":"image/png",
			"name":"MetalScratched007_REFL_3K",
			"uri":"MetalScratched007_REFL_3K.png"
		},
		{
			"mimeType":"image/jpeg",
			"name":"Wood063_2K_Normal",
			"uri":"Wood063_2K_Normal.jpg"
		},
		{
			"mimeType":"image/jpeg",
			"name":"Wood063_2K_Color",
			"uri":"Wood063_2K_Color.jpg"
		},
		{
			"mimeType":"image/png",
			"name":"Wood063_2K_Roughness",
			"uri":"Wood063_2K_Roughness.png"
		}
	],
	"accessors":[
		{
			"bufferView":0,
			"componentType":5126,
			"count":272,
			"max":[
				0.32999998331069946,
				0.7000000476837158,
				0.33000001311302185
			],
			"min":[
				-0.32999998331069946,
				3.8146975356312396e-08,
				-0.5792995691299438
			],
			"type":"VEC3"
		},
		{
			"bufferView":1,
			"componentType":5126,
			"count":272,
			"type":"VEC3"
		},
		{
			"bufferView":2,
			"componentType":5126,
			"count":272,
			"type":"VEC2"
		},
		{
			"bufferView":3,
			"componentType":5126,
			"count":272,
			"type":"VEC2"
		},
		{
			"bufferView":4,
			"componentType":5123,
			"count":768,
			"type":"SCALAR"
		},
		{
			"bufferView":5,
			"componentType":5126,
			"count":177,
			"max":[
				0.3500000238418579,
				0.7200000286102295,
				0.3500000238418579
			],
			"min":[
				-0.3500000238418579,
				0.7000000476837158,
				-0.5992995500564575
			],
			"type":"VEC3"
		},
		{
			"bufferView":6,
			"componentType":5126,
			"count":177,
			"type":"VEC3"
		},
		{
			"bufferView":7,
			"componentType":5126,
			"count":177,
			"type":"VEC2"
		},
		{
			"bufferView":8,
			"componentType":5126,
			"count":177,
			"type":"VEC2"
		},
		{
			"bufferView":9,
			"componentType":5123,
			"count":492,
			"type":"SCALAR"
		}
	],
	"bufferViews":[
		{
			"buffer":0,
			"byteLength":3264,
			"byteOffset":0,
			"target":34962
		},
		{
			"buffer":0,
			"byteLength":3264,
			"byteOffset":3264,
			"target":34962
		},
		{
			"buffer":0,
			"byteLength":2176,
			"byteOffset":6528,
			"target":34962
		},
		{
			"buffer":0,
			"byteLength":2176,
			"byteOffset":8704,
			"target":34962
		},
		{
			"buffer":0,
			"byteLength":1536,
			"byteOffset":10880,
			"target":34963
		},
		{
			"buffer":0,
			"byteLength":2124,
			"byteOffset":12416,
			"target":34962
		},
		{
			"buffer":0,
			"byteLength":2124,
			"byteOffset":14540,
			"target":34962
		},
		{
			"buffer":0,
			"byteLength":1416,
			"byteOffset":16664,
			"target":34962
		},
		{
			"buffer":0,
			"byteLength":1416,
			"byteOffset":18080,
			"target":34962
		},
		{
			"buffer":0,
			"byteLength":984,
			"byteOffset":19496,
			"target":34963
		}
	],
	"samplers":[
		{
			"magFilter":9729,
			"minFilter":9987
		}
	],
	"buffers":[
		{
			"byteLength":20480,
			"uri":"Table_IndoorShort.bin"
		}
	]
}
