{
	"asset":{
		"generator":"Khronos glTF Blender I/O v4.1.63",
		"version":"2.0"
	},
	"scene":0,
	"scenes":[
		{
			"name":"Scene",
			"nodes":[
				0,
				1,
				2,
				3,
				4,
				5,
				6
			]
		}
	],
	"nodes":[
		{
			"mesh":0,
			"name":"ScrewsLid"
		},
		{
			"mesh":1,
			"name":"Base"
		},
		{
			"mesh":2,
			"name":"Lid"
		},
		{
			"mesh":3,
			"name":"ScrewsBase"
		},
		{
			"mesh":4,
			"name":"Lock",
			"rotation":[
				-0.5,
				0.4999999403953552,
				-0.5,
				0.5000000596046448
			],
			"scale":[
				0.1300474852323532,
				0.1300474852323532,
				0.1300474852323532
			],
			"translation":[
				2.312954902648926,
				2.6073877811431885,
				0
			]
		},
		{
			"mesh":5,
			"name":"Base.004"
		},
		{
			"mesh":6,
			"name":"Lid.001"
		}
	],
	"materials":[
		{
			"doubleSided":true,
			"name":"MetalGalvanizedSteelWorn001_2K",
			"pbrMetallicRoughness":{
				"baseColorTexture":{
					"index":0
				},
				"roughnessFactor":0.5
			}
		},
		{
			"doubleSided":true,
			"name":"WoodPlanksWorn001_2K",
			"pbrMetallicRoughness":{
				"baseColorTexture":{
					"index":1
				},
				"metallicFactor":0,
				"metallicRoughnessTexture":{
					"index":2
				}
			}
		}
	],
	"meshes":[
		{
			"name":"Cylinder.005",
			"primitives":[
				{
					"attributes":{
						"POSITION":0,
						"NORMAL":1,
						"TEXCOORD_0":2
					},
					"indices":3,
					"material":0
				}
			]
		},
		{
			"name":"Cube.015",
			"primitives":[
				{
					"attributes":{
						"POSITION":4,
						"NORMAL":5,
						"TEXCOORD_0":6
					},
					"indices":7,
					"material":1
				}
			]
		},
		{
			"name":"Cube.016",
			"primitives":[
				{
					"attributes":{
						"POSITION":8,
						"NORMAL":9,
						"TEXCOORD_0":10
					},
					"indices":11,
					"material":1
				}
			]
		},
		{
			"name":"Cylinder.007",
			"primitives":[
				{
					"attributes":{
						"POSITION":12,
						"NORMAL":13,
						"TEXCOORD_0":14
					},
					"indices":15,
					"material":0
				}
			]
		},
		{
			"name":"Cylinder.010",
			"primitives":[
				{
					"attributes":{
						"POSITION":16,
						"NORMAL":17,
						"TEXCOORD_0":18
					},
					"indices":19,
					"material":0
				}
			]
		},
		{
			"name":"Cube.004",
			"primitives":[
				{
					"attributes":{
						"POSITION":20,
						"NORMAL":21,
						"TEXCOORD_0":22
					},
					"indices":23,
					"material":0
				}
			]
		},
		{
			"name":"Cube.005",
			"primitives":[
				{
					"attributes":{
						"POSITION":24,
						"NORMAL":25,
						"TEXCOORD_0":26
					},
					"indices":27,
					"material":0
				}
			]
		}
	],
	"textures":[
		{
			"sampler":0,
			"source":0
		},
		{
			"sampler":0,
			"source":1
		},
		{
			"sampler":0,
			"source":2
		}
	],
	"images":[
		{
			"mimeType":"image/jpeg",
			"name":"MetalGalvanizedSteelWorn001_COL_2K_METALNESS",
			"uri":"MetalGalvanizedSteelWorn001_COL_2K_METALNESS.jpg"
		},
		{
			"mimeType":"image/jpeg",
			"name":"Wood063_2K_Color.jpg",
			"uri":"Wood063_2K_Color_jpg.jpg"
		},
		{
			"mimeType":"image/png",
			"name":"Image",
			"uri":"Image.png"
		}
	],
	"accessors":[
		{
			"bufferView":0,
			"componentType":5126,
			"count":3829,
			"max":[
				2.3313605785369873,
				3.7582309246063232,
				4.713285446166992
			],
			"min":[
				-2.3313605785369873,
				3.3943638801574707,
				-4.713285446166992
			],
			"type":"VEC3"
		},
		{
			"bufferView":1,
			"componentType":5126,
			"count":3829,
			"type":"VEC3"
		},
		{
			"bufferView":2,
			"componentType":5126,
			"count":3829,
			"type":"VEC2"
		},
		{
			"bufferView":3,
			"componentType":5123,
			"count":19332,
			"type":"SCALAR"
		},
		{
			"bufferView":4,
			"componentType":5126,
			"count":266,
			"max":[
				2.217444896697998,
				2.8932430744171143,
				4.593681335449219
			],
			"min":[
				-2.217444896697998,
				-0.5365941524505615,
				-4.593681335449219
			],
			"type":"VEC3"
		},
		{
			"bufferView":5,
			"componentType":5126,
			"count":266,
			"type":"VEC3"
		},
		{
			"bufferView":6,
			"componentType":5126,
			"count":266,
			"type":"VEC2"
		},
		{
			"bufferView":7,
			"componentType":5123,
			"count":624,
			"type":"SCALAR"
		},
		{
			"bufferView":8,
			"componentType":5126,
			"count":136,
			"max":[
				2.267444610595703,
				3.6432430744171143,
				4.643681526184082
			],
			"min":[
				-2.217444896697998,
				2.893242835998535,
				-4.593681335449219
			],
			"type":"VEC3"
		},
		{
			"bufferView":9,
			"componentType":5126,
			"count":136,
			"type":"VEC3"
		},
		{
			"bufferView":10,
			"componentType":5126,
			"count":136,
			"type":"VEC2"
		},
		{
			"bufferView":11,
			"componentType":5123,
			"count":312,
			"type":"SCALAR"
		},
		{
			"bufferView":12,
			"componentType":5126,
			"count":1920,
			"max":[
				2.3313605785369873,
				2.8561761379241943,
				4.713285446166992
			],
			"min":[
				-2.3313605785369873,
				-0.3556361198425293,
				-4.713285446166992
			],
			"type":"VEC3"
		},
		{
			"bufferView":13,
			"componentType":5126,
			"count":1920,
			"type":"VEC3"
		},
		{
			"bufferView":14,
			"componentType":5126,
			"count":1920,
			"type":"VEC2"
		},
		{
			"bufferView":15,
			"componentType":5123,
			"count":9840,
			"type":"SCALAR"
		},
		{
			"bufferView":16,
			"componentType":5126,
			"count":588,
			"max":[
				6.968549728393555,
				3.276866912841797,
				1.3412976264953613
			],
			"min":[
				-3.964567184448242,
				-3.2768654823303223,
				-0.6725311279296875
			],
			"type":"VEC3"
		},
		{
			"bufferView":17,
			"componentType":5126,
			"count":588,
			"type":"VEC3"
		},
		{
			"bufferView":18,
			"componentType":5126,
			"count":588,
			"type":"VEC2"
		},
		{
			"bufferView":19,
			"componentType":5123,
			"count":2124,
			"type":"SCALAR"
		},
		{
			"bufferView":20,
			"componentType":5126,
			"count":209,
			"max":[
				2.2674448490142822,
				2.8932430744171143,
				4.643681526184082
			],
			"min":[
				-2.2674448490142822,
				-0.5365941524505615,
				-4.643681526184082
			],
			"type":"VEC3"
		},
		{
			"bufferView":21,
			"componentType":5126,
			"count":209,
			"type":"VEC3"
		},
		{
			"bufferView":22,
			"componentType":5126,
			"count":209,
			"type":"VEC2"
		},
		{
			"bufferView":23,
			"componentType":5123,
			"count":528,
			"type":"SCALAR"
		},
		{
			"bufferView":24,
			"componentType":5126,
			"count":284,
			"max":[
				2.2674448490142822,
				3.6932430267333984,
				4.643681526184082
			],
			"min":[
				-2.2674448490142822,
				2.8932430744171143,
				-4.643681526184082
			],
			"type":"VEC3"
		},
		{
			"bufferView":25,
			"componentType":5126,
			"count":284,
			"type":"VEC3"
		},
		{
			"bufferView":26,
			"componentType":5126,
			"count":284,
			"type":"VEC2"
		},
		{
			"bufferView":27,
			"componentType":5123,
			"count":1056,
			"type":"SCALAR"
		}
	],
	"bufferViews":[
		{
			"buffer":0,
			"byteLength":45948,
			"byteOffset":0,
			"target":34962
		},
		{
			"buffer":0,
			"byteLength":45948,
			"byteOffset":45948,
			"target":34962
		},
		{
			"buffer":0,
			"byteLength":30632,
			"byteOffset":91896,
			"target":34962
		},
		{
			"buffer":0,
			"byteLength":38664,
			"byteOffset":122528,
			"target":34963
		},
		{
			"buffer":0,
			"byteLength":3192,
			"byteOffset":161192,
			"target":34962
		},
		{
			"buffer":0,
			"byteLength":3192,
			"byteOffset":164384,
			"target":34962
		},
		{
			"buffer":0,
			"byteLength":2128,
			"byteOffset":167576,
			"target":34962
		},
		{
			"buffer":0,
			"byteLength":1248,
			"byteOffset":169704,
			"target":34963
		},
		{
			"buffer":0,
			"byteLength":1632,
			"byteOffset":170952,
			"target":34962
		},
		{
			"buffer":0,
			"byteLength":1632,
			"byteOffset":172584,
			"target":34962
		},
		{
			"buffer":0,
			"byteLength":1088,
			"byteOffset":174216,
			"target":34962
		},
		{
			"buffer":0,
			"byteLength":624,
			"byteOffset":175304,
			"target":34963
		},
		{
			"buffer":0,
			"byteLength":23040,
			"byteOffset":175928,
			"target":34962
		},
		{
			"buffer":0,
			"byteLength":23040,
			"byteOffset":198968,
			"target":34962
		},
		{
			"buffer":0,
			"byteLength":15360,
			"byteOffset":222008,
			"target":34962
		},
		{
			"buffer":0,
			"byteLength":19680,
			"byteOffset":237368,
			"target":34963
		},
		{
			"buffer":0,
			"byteLength":7056,
			"byteOffset":257048,
			"target":34962
		},
		{
			"buffer":0,
			"byteLength":7056,
			"byteOffset":264104,
			"target":34962
		},
		{
			"buffer":0,
			"byteLength":4704,
			"byteOffset":271160,
			"target":34962
		},
		{
			"buffer":0,
			"byteLength":4248,
			"byteOffset":275864,
			"target":34963
		},
		{
			"buffer":0,
			"byteLength":2508,
			"byteOffset":280112,
			"target":34962
		},
		{
			"buffer":0,
			"byteLength":2508,
			"byteOffset":282620,
			"target":34962
		},
		{
			"buffer":0,
			"byteLength":1672,
			"byteOffset":285128,
			"target":34962
		},
		{
			"buffer":0,
			"byteLength":1056,
			"byteOffset":286800,
			"target":34963
		},
		{
			"buffer":0,
			"byteLength":3408,
			"byteOffset":287856,
			"target":34962
		},
		{
			"buffer":0,
			"byteLength":3408,
			"byteOffset":291264,
			"target":34962
		},
		{
			"buffer":0,
			"byteLength":2272,
			"byteOffset":294672,
			"target":34962
		},
		{
			"buffer":0,
			"byteLength":2112,
			"byteOffset":296944,
			"target":34963
		}
	],
	"samplers":[
		{
			"magFilter":9729,
			"minFilter":9987
		}
	],
	"buffers":[
		{
			"byteLength":299056,
			"uri":"Wooden_Lockbox.bin"
		}
	]
}
