# Blender 4.0.2
# www.blender.org
mtllib hammer.mtl
o Hammer
v -0.275452 1.699714 -0.000000
v -0.266003 -1.972160 -0.000000
v -0.221113 1.699714 -0.221113
v -0.188092 -1.972160 -0.188092
v 0.000000 1.699714 -0.275452
v 0.000000 -1.972160 -0.266003
v -0.000000 1.699714 0.275452
v -0.000000 -1.972160 0.266003
v -0.221113 1.699714 0.221113
v -0.188092 -1.972160 0.188092
v -0.297943 2.179349 0.923442
v -0.297943 2.179349 0.438066
v -0.210678 1.968671 0.923442
v -0.210678 1.968671 0.438066
v -0.000000 1.881406 0.923442
v -0.000000 1.881406 0.438066
v -0.000000 2.477292 0.923442
v -0.000000 2.477292 0.438066
v -0.210678 2.390027 0.923442
v -0.210678 2.390027 0.438066
v -0.142674 2.487996 0.142674
v -0.142674 2.487996 -0.142674
v -0.315322 2.172674 -0.315322
v -0.315322 2.172674 0.315322
v -0.000000 2.487996 0.178292
v 0.000000 2.487996 -0.178292
v -0.178292 2.487996 -0.000000
v -0.315322 2.172674 -0.000000
v 0.000000 1.857352 -0.315322
v -0.282405 1.890269 -0.282405
v -0.315322 2.487996 -0.000000
v -0.304813 2.483258 -0.304813
v -0.315322 1.857352 -0.000000
v -0.282405 1.890269 0.282405
v -0.000000 2.487996 0.315322
v -0.282405 2.455079 0.282405
v 0.000000 2.487996 -0.315322
v -0.000000 1.857352 0.315322
v -0.242187 1.552324 -0.000000
v -0.171252 1.552324 -0.171252
v 0.000000 1.552324 -0.242187
v -0.000000 1.552324 0.242187
v -0.171252 1.552324 0.171252
v -0.147295 2.521186 0.147295
v -0.147295 2.521186 -0.147295
v -0.000000 2.521186 0.184065
v 0.000000 2.521186 -0.184065
v -0.184065 2.521186 -0.000000
v -0.174283 1.683672 -0.174283
v 0.000000 1.683672 -0.233540
v -0.000000 1.683672 0.233540
v -0.174283 1.683672 0.174283
v -0.233540 1.683672 -0.000000
v -0.315322 2.172674 -0.425374
v 0.000000 1.912668 -0.425374
v -0.282405 1.945585 -0.392457
v -0.304813 2.455079 -0.414865
v 0.000000 2.447163 -0.565260
v -0.277109 2.097321 -0.733397
v -0.277109 2.224848 -0.733397
v -0.277109 2.409614 -0.733397
v -0.264329 2.115286 -1.005451
v -0.264329 2.197990 -1.005555
v -0.264329 2.324682 -1.005301
v -0.240607 2.028395 -1.345875
v -0.240607 2.028395 -1.400504
v -0.244623 2.024623 -1.462530
v 0.000000 2.193371 -0.500704
v -0.125448 2.177064 -0.759456
v -0.029999 2.404109 -0.715897
v -0.080143 2.278541 -0.733164
v -0.153522 2.200660 -1.006031
v -0.061660 2.324374 -0.998683
v -0.102271 2.254299 -1.003929
v -0.132837 2.049858 -1.347345
v -0.069986 2.028395 -1.464883
v -0.101634 2.045164 -1.398243
v -0.242717 2.179349 0.716567
v -0.242717 2.179349 0.554756
v -0.171627 2.007722 0.554756
v -0.171627 2.007722 0.716567
v -0.000000 1.936633 0.554756
v -0.000000 1.936633 0.716567
v -0.000000 2.422065 0.554756
v -0.000000 2.422065 0.716567
v -0.171627 2.350976 0.554756
v -0.171627 2.350976 0.716567
v -0.297943 2.179349 1.221360
v -0.210678 1.968671 1.221360
v -0.000000 1.881406 1.221360
v -0.000000 2.477292 1.221360
v -0.210678 2.390027 1.221361
v -0.266003 0.047491 -0.000000
v -0.188092 0.047491 -0.188092
v 0.000000 0.047491 -0.266003
v -0.000000 0.047491 0.266003
v -0.188092 0.047491 0.188092
v 0.275452 1.699714 0.000000
v 0.266003 -1.972160 0.000000
v 0.221113 1.699714 -0.221113
v 0.188092 -1.972160 -0.188092
v 0.221113 1.699714 0.221113
v 0.188092 -1.972160 0.188092
v 0.297943 2.179349 0.923442
v 0.297943 2.179349 0.438066
v 0.210677 1.968671 0.923442
v 0.210678 1.968671 0.438066
v 0.210677 2.390027 0.923442
v 0.210678 2.390027 0.438066
v 0.142674 2.487996 0.142674
v 0.142674 2.487996 -0.142674
v 0.315322 2.172674 -0.315322
v 0.315322 2.172674 0.315322
v 0.178292 2.487996 0.000000
v 0.315322 2.172674 0.000000
v 0.282405 1.890269 -0.282405
v 0.315322 2.487996 0.000000
v 0.304813 2.483258 -0.304813
v 0.315322 1.857352 0.000000
v 0.282405 1.890269 0.282405
v 0.282405 2.455079 0.282405
v 0.242187 1.552324 0.000000
v 0.171252 1.552324 -0.171252
v 0.171252 1.552324 0.171252
v 0.147295 2.521186 0.147295
v 0.147295 2.521186 -0.147295
v 0.184065 2.521186 0.000000
v 0.174283 1.683672 -0.174283
v 0.174283 1.683672 0.174283
v 0.233540 1.683672 0.000000
v 0.315322 2.172674 -0.425374
v 0.282405 1.945585 -0.392457
v 0.304813 2.455079 -0.414865
v 0.277109 2.097321 -0.733397
v 0.277109 2.224848 -0.733397
v 0.277109 2.409614 -0.733397
v 0.264330 2.115286 -1.005451
v 0.264330 2.197990 -1.005555
v 0.264330 2.324682 -1.005301
v 0.240608 2.028395 -1.345875
v 0.240608 2.028395 -1.400504
v 0.244624 2.024623 -1.462530
v 0.125448 2.177064 -0.759456
v 0.029999 2.404109 -0.715897
v 0.080144 2.278541 -0.733164
v 0.153523 2.200660 -1.006031
v 0.061660 2.324374 -0.998683
v 0.102271 2.254299 -1.003929
v 0.132838 2.049858 -1.347345
v 0.069986 2.028395 -1.464883
v 0.101635 2.045164 -1.398243
v 0.242716 2.179349 0.716567
v 0.242716 2.179349 0.554756
v 0.171626 2.007722 0.554756
v 0.171626 2.007722 0.716567
v 0.171626 2.350976 0.554756
v 0.171626 2.350976 0.716567
v 0.297943 2.179349 1.221361
v 0.210677 1.968671 1.221360
v 0.210677 2.390027 1.221361
v 0.266003 0.047491 0.000000
v 0.188092 0.047491 -0.188092
v 0.188092 0.047491 0.188092
vn 1.0000 -0.0079 -0.0000
vn 0.7764 0.6303 -0.0000
vn 0.5490 0.6303 0.5490
vn 0.7071 -0.0079 0.7071
vn -0.0000 0.6303 0.7764
vn -0.0000 -0.0079 1.0000
vn -0.0000 -0.0079 -1.0000
vn -0.0000 0.6303 -0.7764
vn 0.5490 0.6303 -0.5490
vn 0.7071 -0.0079 -0.7071
vn -0.8465 -0.3506 0.4006
vn -0.3506 -0.8465 0.4006
vn -0.9997 0.0171 -0.0171
vn -0.3506 0.8465 0.4006
vn -0.8465 0.3506 0.4006
vn -0.9966 -0.0581 -0.0581
vn -0.2446 0.9178 0.3128
vn -0.9076 0.2440 0.3417
vn -0.8997 -0.2435 0.3624
vn -0.2426 -0.8885 0.3895
vn -0.0000 0.7041 -0.7101
vn -0.4375 0.7856 -0.4374
vn -0.5979 0.5338 -0.5979
vn -0.0000 0.5909 -0.8067
vn -0.9966 -0.0581 0.0581
vn -0.9966 0.0581 0.0581
vn -0.1819 -0.3037 -0.9352
vn -0.0096 0.9999 -0.0116
vn -0.0106 0.9999 -0.0106
vn -0.9352 -0.3037 0.1819
vn -0.0887 0.9934 0.0733
vn -0.0116 0.9999 -0.0096
vn -0.1819 -0.3037 0.9352
vn -0.0733 0.9934 0.0887
vn -0.9352 -0.3037 -0.1819
vn 0.5096 0.6933 -0.5096
vn 0.7070 -0.0167 -0.7070
vn 0.9999 -0.0164 -0.0000
vn 0.7590 0.6511 -0.0000
vn -0.0000 0.6511 -0.7590
vn -0.0000 -0.0164 -0.9999
vn 0.5096 0.6933 0.5096
vn 0.7070 -0.0167 0.7070
vn -0.0000 -0.0164 0.9999
vn -0.0000 0.6511 0.7590
vn -0.7237 0.6894 0.0313
vn -0.4766 0.7386 0.4767
vn -0.5979 0.5338 0.5979
vn -0.8067 0.5909 -0.0000
vn -0.0000 0.6755 0.7374
vn -0.0000 0.5909 0.8067
vn 0.2984 0.9506 0.0857
vn 0.0857 0.9506 0.2984
vn 0.0857 0.9506 -0.2984
vn 0.2984 0.9506 -0.0857
vn -0.9900 -0.1010 -0.0981
vn -0.9989 -0.0000 -0.0469
vn -0.9942 0.0247 -0.1043
vn -0.9980 -0.0346 -0.0523
vn -0.9986 -0.0456 -0.0258
vn -0.8922 0.1600 0.4225
vn -0.9437 0.1608 0.2890
vn -0.8528 0.5158 0.0821
vn -0.9075 0.4199 0.0093
vn -0.6241 0.6945 -0.3579
vn -0.7285 0.5936 -0.3420
vn 0.0644 -0.9832 0.1708
vn 0.1522 -0.9843 0.0888
vn -0.0016 0.8402 -0.5423
vn 0.0277 0.9580 -0.2853
vn -0.0207 0.9825 -0.1853
vn 0.4180 -0.8490 0.3232
vn 0.5246 -0.8473 -0.0834
vn 0.0200 -0.8495 -0.5272
vn -0.0445 0.9811 -0.1881
vn -0.9994 0.0356 -0.0046
vn -0.9907 -0.1323 -0.0332
vn -0.1546 -0.8827 -0.4437
vn -0.8970 0.3716 -0.2395
vn -0.9239 0.3827 -0.0000
vn -0.3716 0.8970 -0.2395
vn -0.3827 0.9239 -0.0000
vn -0.3715 -0.8970 -0.2395
vn -0.3827 -0.9239 -0.0000
vn -0.8970 -0.3715 -0.2395
vn -0.9239 -0.3827 -0.0000
vn -0.0000 -0.0000 1.0000
vn -1.0000 -0.0079 -0.0000
vn -0.7071 -0.0079 0.7071
vn -0.5490 0.6303 0.5490
vn -0.7764 0.6303 -0.0000
vn -0.7071 -0.0079 -0.7071
vn -0.5490 0.6303 -0.5490
vn 0.8465 -0.3506 0.4006
vn 0.3506 -0.8465 0.4006
vn 0.9997 0.0171 -0.0171
vn 0.3506 0.8465 0.4006
vn 0.8465 0.3506 0.4006
vn 0.9966 -0.0581 -0.0581
vn 0.2446 0.9178 0.3128
vn 0.9076 0.2440 0.3417
vn 0.8997 -0.2435 0.3624
vn 0.2426 -0.8885 0.3895
vn 0.5979 0.5338 -0.5979
vn 0.4374 0.7856 -0.4375
vn 0.9966 -0.0581 0.0581
vn 0.9966 0.0581 0.0581
vn 0.1819 -0.3037 -0.9352
vn 0.0096 0.9999 -0.0116
vn 0.0106 0.9999 -0.0106
vn 0.9352 -0.3037 0.1819
vn 0.0887 0.9934 0.0733
vn 0.0116 0.9999 -0.0096
vn 0.1819 -0.3037 0.9352
vn 0.0733 0.9934 0.0887
vn 0.9352 -0.3037 -0.1819
vn -0.5096 0.6933 -0.5096
vn -0.7590 0.6511 -0.0000
vn -0.9999 -0.0164 -0.0000
vn -0.7070 -0.0167 -0.7070
vn -0.5096 0.6933 0.5096
vn -0.7070 -0.0167 0.7070
vn 0.7237 0.6894 0.0313
vn 0.8067 0.5909 -0.0000
vn 0.5979 0.5338 0.5979
vn 0.4766 0.7386 0.4767
vn -0.2984 0.9506 0.0857
vn -0.0857 0.9506 0.2984
vn -0.0857 0.9506 -0.2984
vn -0.2984 0.9506 -0.0857
vn 0.9900 -0.1010 -0.0981
vn 0.9989 -0.0000 -0.0469
vn 0.9942 0.0247 -0.1043
vn 0.9980 -0.0346 -0.0523
vn 0.9986 -0.0456 -0.0258
vn 0.8922 0.1600 0.4225
vn 0.9437 0.1608 0.2890
vn 0.8528 0.5158 0.0821
vn 0.9075 0.4199 0.0093
vn 0.6241 0.6945 -0.3579
vn 0.7285 0.5936 -0.3420
vn -0.0644 -0.9832 0.1708
vn -0.1522 -0.9843 0.0888
vn 0.0016 0.8402 -0.5423
vn -0.0277 0.9580 -0.2853
vn 0.0207 0.9825 -0.1853
vn -0.4180 -0.8490 0.3232
vn -0.5246 -0.8473 -0.0834
vn -0.0200 -0.8495 -0.5272
vn 0.0445 0.9811 -0.1881
vn 0.9994 0.0356 -0.0046
vn 0.9907 -0.1323 -0.0332
vn 0.1546 -0.8827 -0.4437
vn 0.8970 0.3715 -0.2395
vn 0.9239 0.3827 -0.0000
vn 0.3716 0.8970 -0.2395
vn 0.3827 0.9239 -0.0000
vn 0.3715 -0.8970 -0.2395
vn 0.3827 -0.9239 -0.0000
vn 0.8970 -0.3715 -0.2395
vn 0.9239 -0.3827 -0.0000
vt 0.313742 0.496671
vt 0.298647 0.062847
vt 0.338115 0.045322
vt 0.366727 0.495933
vt 0.381474 0.002413
vt 0.420692 0.494904
vt 0.210489 0.497094
vt 0.210785 0.008485
vt 0.257246 0.059089
vt 0.260786 0.497015
vt 0.789989 0.250483
vt 0.776591 0.297436
vt 0.696018 0.268153
vt 0.720140 0.221894
vt 0.628102 0.214467
vt 0.661842 0.182640
vt 0.736462 0.448062
vt 0.840520 0.469209
vt 0.817357 0.572732
vt 0.715092 0.557781
vt 0.932836 0.270669
vt 0.940346 0.314400
vt 0.858508 0.316417
vt 0.862842 0.267658
vt 0.631542 0.424504
vt 0.612403 0.526712
vt 0.850488 0.379088
vt 0.943880 0.357181
vt 0.762088 0.339335
vt 0.659675 0.328746
vt 0.597182 0.247073
vt 0.995041 0.115372
vt 0.956770 0.096133
vt 0.964837 0.089882
vt 0.999808 0.106795
vt 0.484130 0.512602
vt 0.554896 0.479114
vt 0.510850 0.569337
vt 0.885347 0.474101
vt 0.889588 0.526626
vt 0.577688 0.410811
vt 0.590977 0.341766
vt 0.949497 0.405632
vt 0.900510 0.424075
vt 0.937680 0.550125
vt 0.927289 0.598910
vt 0.548821 0.281989
vt 0.258807 0.922960
vt 0.259154 0.888311
vt 0.307885 0.888456
vt 0.307185 0.922908
vt 0.210450 0.921932
vt 0.210451 0.887498
vt 0.355552 0.924973
vt 0.356700 0.890271
vt 0.405625 0.891599
vt 0.403925 0.926095
vt 0.949880 0.057782
vt 0.956770 0.019430
vt 0.964837 0.025681
vt 0.958344 0.057782
vt 0.995041 0.000191
vt 0.999808 0.008768
vt 0.564097 0.407195
vt 0.538010 0.464037
vt 0.480697 0.496870
vt 0.541944 0.289585
vt 0.569724 0.345854
vt 0.843633 0.901208
vt 0.876083 0.845363
vt 0.822869 0.781437
vt 0.796663 0.805221
vt 0.855565 0.749962
vt 0.799794 0.715869
vt 0.776552 0.729562
vt 0.759117 0.738874
vt 0.922880 0.792002
vt 0.715198 0.650997
vt 0.719090 0.663293
vt 0.713913 0.649040
vt 0.769822 0.931618
vt 0.667213 0.900212
vt 0.684885 0.831578
vt 0.739940 0.834741
vt 0.953977 0.670545
vt 0.953977 0.724031
vt 0.880511 0.704563
vt 0.880611 0.673334
vt 0.699842 0.765241
vt 0.717231 0.758831
vt 0.817296 0.683422
vt 0.814591 0.656654
vt 0.689671 0.664505
vt 0.694590 0.676948
vt 0.721614 0.640356
vt 0.725280 0.638868
vt 0.919250 0.638484
vt 0.809770 0.612310
vt 0.707976 0.597434
vt 0.627257 0.571306
vt 0.526524 0.613854
vt 0.881139 0.137888
vt 0.871550 0.206102
vt 0.807003 0.191258
vt 0.824861 0.129078
vt 0.949497 0.137420
vt 0.937866 0.213630
vt 0.772991 0.107042
vt 0.746219 0.166235
vt 0.689809 0.136266
vt 0.714840 0.070400
vt 0.840420 0.075945
vt 0.807660 0.051700
vt 0.778777 0.000191
vt 0.933183 0.041187
vt 0.876877 0.076917
s 1
usemtl HammerHandleTex
f 93/1/1 2/2/2 4/3/3 94/4/4
f 94/4/4 4/3/3 6/5/5 95/6/6
f 96/7/7 8/8/8 10/9/9 97/10/10
f 97/10/10 10/9/9 2/2/2 93/1/1
f 26/32/21 22/33/22 45/34/23 47/35/24
f 52/48/36 43/49/37 39/50/38 53/51/39
f 51/52/40 42/53/41 43/49/37 52/48/36
f 49/54/42 40/55/43 41/56/44 50/57/45
f 53/51/39 39/50/38 40/55/43 49/54/42
f 27/58/46 21/59/47 44/60/48 48/61/49
f 21/59/47 25/62/50 46/63/51 44/60/48
f 22/33/22 27/58/46 48/61/49 45/34/23
f 46/63/51 47/35/24 45/34/23 48/61/49 44/60/48
f 4/3/3 2/2/2 10/9/9 8/8/8 6/5/5
f 43/49/37 97/10/10 93/1/1 39/50/38
f 42/53/41 96/7/7 97/10/10 43/49/37
f 40/55/43 94/4/4 95/6/6 41/56/44
f 39/50/38 93/1/1 94/4/4 40/55/43
f 161/1/88 162/4/89 101/3/90 99/2/91
f 162/4/89 95/6/6 6/5/5 101/3/90
f 96/7/7 163/10/92 103/9/93 8/8/8
f 163/10/92 161/1/88 99/2/91 103/9/93
f 26/32/21 47/35/24 126/34/104 111/33/105
f 129/48/117 130/51/118 122/50/119 124/49/120
f 51/52/40 129/48/117 124/49/120 42/53/41
f 128/54/121 50/57/45 41/56/44 123/55/122
f 130/51/118 128/54/121 123/55/122 122/50/119
f 114/58/123 127/61/124 125/60/125 110/59/126
f 110/59/126 125/60/125 46/63/51 25/62/50
f 111/33/105 126/34/104 127/61/124 114/58/123
f 46/63/51 125/60/125 127/61/124 126/34/104 47/35/24
f 101/3/90 6/5/5 8/8/8 103/9/93 99/2/91
f 124/49/120 122/50/119 161/1/88 163/10/92
f 42/53/41 124/49/120 163/10/92 96/7/7
f 123/55/122 41/56/44 95/6/6 162/4/89
f 122/50/119 123/55/122 162/4/89 161/1/88
usemtl MetalToolTex
f 79/11/11 12/12/11 14/13/11 80/14/11
f 80/14/12 14/13/12 16/15/12 82/16/12
f 28/17/13 31/18/13 32/19/13 23/20/13
f 84/21/14 18/22/14 20/23/14 86/24/14
f 86/24/15 20/23/15 12/12/15 79/11/15
f 33/25/16 28/17/16 23/20/16 30/26/16
f 36/27/17 20/23/17 18/22/17 35/28/17
f 36/27/18 24/29/18 12/12/18 20/23/18
f 34/30/19 14/13/19 12/12/19 24/29/19
f 34/30/20 38/31/20 16/15/20 14/13/20
f 34/30/25 24/29/25 28/17/25 33/25/25
f 24/29/26 36/27/26 31/18/26 28/17/26
f 5/36/27 3/37/27 30/26/27 29/38/27
f 27/39/28 22/40/29 32/19/29 31/18/28
f 1/41/30 9/42/30 34/30/30 33/25/30
f 25/43/31 21/44/31 36/27/31 35/28/31
f 22/40/29 26/45/32 37/46/32 32/19/29
f 9/42/33 7/47/33 38/31/33 34/30/33
f 21/44/34 27/39/34 31/18/34 36/27/34
f 3/37/35 1/41/35 33/25/35 30/26/35
f 1/41/52 53/64/52 49/65/52 3/37/52
f 3/37/53 49/65/53 50/66/53 5/36/53
f 7/47/54 51/67/54 52/68/54 9/42/54
f 9/42/55 52/68/55 53/64/55 1/41/55
f 56/69/56 54/70/56 60/71/56 59/72/56
f 60/71/57 61/73/57 64/74/57 63/75/57
f 59/72/57 60/71/57 63/75/57 62/76/57
f 54/70/58 57/77/58 61/73/58 60/71/58
f 62/76/59 63/75/59 66/78/59 65/79/59
f 63/75/60 64/74/60 67/80/60 66/78/60
f 55/81/61 68/82/61 71/83/61 69/84/61
f 68/85/62 58/86/62 70/87/62 71/88/62
f 69/84/63 71/83/63 74/89/63 72/90/63
f 71/88/64 70/87/64 73/91/64 74/92/64
f 72/90/65 74/89/65 77/93/65 75/94/65
f 74/92/66 73/91/66 76/95/66 77/96/66
f 67/80/67 76/95/67 77/96/67 66/78/67
f 66/78/68 77/93/68 75/94/68 65/79/68
f 67/80/69 64/74/69 73/91/69 76/95/69
f 64/74/70 61/73/70 70/87/70 73/91/70
f 58/86/71 70/87/71 61/73/71 57/77/71
f 62/76/72 65/79/72 75/94/72 72/90/72
f 59/72/73 62/76/73 72/90/73 69/84/73
f 55/81/74 56/69/74 59/72/74 69/84/74
f 37/46/75 58/97/75 57/98/75 32/19/75
f 23/20/76 32/19/76 57/98/76 54/99/76
f 30/26/77 23/20/77 54/99/77 56/100/77
f 30/26/78 56/100/78 55/101/78 29/38/78
f 19/102/79 87/103/79 78/104/79 11/105/79
f 87/103/80 86/24/80 79/11/80 78/104/80
f 17/106/81 85/107/81 87/103/81 19/102/81
f 85/107/82 84/21/82 86/24/82 87/103/82
f 13/108/83 81/109/83 83/110/83 15/111/83
f 81/109/84 80/14/84 82/16/84 83/110/84
f 11/105/85 78/104/85 81/109/85 13/108/85
f 78/104/86 79/11/86 80/14/86 81/109/86
f 88/112/87 89/113/87 90/114/87 91/115/87 92/116/87
f 13/108/84 15/111/84 90/114/84 89/113/84
f 17/106/82 19/102/82 92/116/82 91/115/82
f 11/105/86 13/108/86 89/113/86 88/112/86
f 19/102/80 11/105/80 88/112/80 92/116/80
f 153/11/94 154/14/94 107/13/94 105/12/94
f 154/14/95 82/16/95 16/15/95 107/13/95
f 115/17/96 112/20/96 118/19/96 117/18/96
f 84/21/97 156/24/97 109/23/97 18/22/97
f 156/24/98 153/11/98 105/12/98 109/23/98
f 119/25/99 116/26/99 112/20/99 115/17/99
f 121/27/100 35/28/100 18/22/100 109/23/100
f 121/27/101 109/23/101 105/12/101 113/29/101
f 120/30/102 113/29/102 105/12/102 107/13/102
f 120/30/103 107/13/103 16/15/103 38/31/103
f 120/30/106 119/25/106 115/17/106 113/29/106
f 113/29/107 115/17/107 117/18/107 121/27/107
f 5/36/108 29/38/108 116/26/108 100/37/108
f 114/39/109 117/18/109 118/19/110 111/40/110
f 98/41/111 119/25/111 120/30/111 102/42/111
f 25/43/112 35/28/112 121/27/112 110/44/112
f 111/40/110 118/19/110 37/46/113 26/45/113
f 102/42/114 120/30/114 38/31/114 7/47/114
f 110/44/115 121/27/115 117/18/115 114/39/115
f 100/37/116 116/26/116 119/25/116 98/41/116
f 98/41/127 100/37/127 128/65/127 130/64/127
f 100/37/128 5/36/128 50/66/128 128/65/128
f 7/47/129 102/42/129 129/68/129 51/67/129
f 102/42/130 98/41/130 130/64/130 129/68/130
f 132/69/131 134/72/131 135/71/131 131/70/131
f 135/71/132 138/75/132 139/74/132 136/73/132
f 134/72/132 137/76/132 138/75/132 135/71/132
f 131/70/133 135/71/133 136/73/133 133/77/133
f 137/76/134 140/79/134 141/78/134 138/75/134
f 138/75/135 141/78/135 142/80/135 139/74/135
f 55/81/136 143/84/136 145/83/136 68/82/136
f 68/85/137 145/88/137 144/87/137 58/86/137
f 143/84/138 146/90/138 148/89/138 145/83/138
f 145/88/139 148/92/139 147/91/139 144/87/139
f 146/90/140 149/94/140 151/93/140 148/89/140
f 148/92/141 151/96/141 150/95/141 147/91/141
f 142/80/142 141/78/142 151/96/142 150/95/142
f 141/78/143 140/79/143 149/94/143 151/93/143
f 142/80/144 150/95/144 147/91/144 139/74/144
f 139/74/145 147/91/145 144/87/145 136/73/145
f 58/86/146 133/77/146 136/73/146 144/87/146
f 137/76/147 146/90/147 149/94/147 140/79/147
f 134/72/148 143/84/148 146/90/148 137/76/148
f 55/81/149 143/84/149 134/72/149 132/69/149
f 37/46/150 118/19/150 133/98/150 58/97/150
f 112/20/151 131/99/151 133/98/151 118/19/151
f 116/26/152 132/100/152 131/99/152 112/20/152
f 116/26/153 29/38/153 55/101/153 132/100/153
f 108/102/154 104/105/154 152/104/154 157/103/154
f 157/103/155 152/104/155 153/11/155 156/24/155
f 17/106/156 108/102/156 157/103/156 85/107/156
f 85/107/157 157/103/157 156/24/157 84/21/157
f 106/108/158 15/111/158 83/110/158 155/109/158
f 155/109/159 83/110/159 82/16/159 154/14/159
f 104/105/160 106/108/160 155/109/160 152/104/160
f 152/104/161 155/109/161 154/14/161 153/11/161
f 158/112/87 160/116/87 91/115/87 90/114/87 159/113/87
f 106/108/159 159/113/159 90/114/159 15/111/159
f 17/106/157 91/115/157 160/116/157 108/102/157
f 104/105/161 158/112/161 159/113/161 106/108/161
f 108/102/155 160/116/155 158/112/155 104/105/155
